<svg width="80" height="80" viewBox="0 0 80 80" fill="none" xmlns="http://www.w3.org/2000/svg">
<circle cx="40" cy="40" r="40" fill="#0E3452"/>
<path opacity="0.03" fill-rule="evenodd" clip-rule="evenodd" d="M40 75.4286C59.5667 75.4286 75.4286 59.5667 75.4286 40C75.4286 20.4333 59.5667 4.57143 40 4.57143C20.4333 4.57143 4.57143 20.4333 4.57143 40C4.57143 59.5667 20.4333 75.4286 40 75.4286ZM40 80C62.0914 80 80 62.0914 80 40C80 17.9086 62.0914 0 40 0C17.9086 0 0 17.9086 0 40C0 62.0914 17.9086 80 40 80Z" fill="#82BAF6"/>
<path opacity="0.3" fill-rule="evenodd" clip-rule="evenodd" d="M76.5713 39.9999C76.5713 60.1977 60.1977 76.5713 39.9999 76.5713C19.8021 76.5713 3.42847 60.1977 3.42847 39.9999C3.42847 19.8021 19.8021 3.42847 39.9999 3.42847C60.1977 3.42847 76.5713 19.8021 76.5713 39.9999ZM39.9999 75.4285C59.5666 75.4285 75.4285 59.5666 75.4285 39.9999C75.4285 20.4332 59.5666 4.57132 39.9999 4.57132C20.4332 4.57132 4.57132 20.4332 4.57132 39.9999C4.57132 59.5666 20.4332 75.4285 39.9999 75.4285Z" fill="#0B1923"/>
<path d="M36.8954 48.5052C35.6933 48.6625 34.1048 47.4907 34.1411 45.8166C34.1759 44.216 35.2545 43.0659 36.9842 43.0504C38.3721 43.038 39.647 44.3692 39.6223 45.7344C39.5931 47.3501 38.4565 48.5051 36.8954 48.5052ZM49.4098 40.1143C49.3978 38.5225 48.3794 37.4114 46.7304 37.3444C45.2964 37.2862 44.136 38.3602 43.9716 39.7586C43.7788 41.3983 44.9785 42.7689 46.5971 42.8222C48.0978 42.8912 49.4216 41.6651 49.4098 40.1143ZM36.8681 31.6911C35.7068 31.692 34.1377 32.6419 34.1205 34.4177C34.1066 35.8548 35.2082 37.1546 36.8936 37.1743C38.4112 37.1921 39.5688 35.9916 39.5693 34.4197C39.685 32.988 38.2866 31.69 36.8681 31.6911ZM33.6325 42.8804C35.1753 42.8342 36.296 41.7598 36.3458 40.1313C36.3907 38.6638 35.1022 37.3861 33.6281 37.3728C32.1266 37.3591 30.9066 38.5805 30.9062 40.0976C30.7926 41.6391 32.1488 42.9248 33.6325 42.8804ZM40.6643 34.4312C40.7281 36.0143 41.6776 37.0729 43.3224 37.1495C45.0282 37.2288 46.1003 35.7706 46.1313 34.4528C46.1628 33.1149 44.9335 31.5924 43.3751 31.7121C42.0254 31.5605 40.6029 32.9095 40.6643 34.4312ZM43.4127 43.0546C41.7648 43.0933 40.7267 44.1418 40.6893 45.7719C40.6521 47.393 42.0427 48.5232 43.4625 48.5245C44.8632 48.5258 46.2749 47.1572 46.1 45.8238C46.2679 44.4602 45.0921 43.0153 43.4127 43.0546ZM30.4859 32.9127C29.5985 32.8859 28.921 33.522 28.8999 34.4016C28.8758 35.4113 29.4767 36.0915 30.4088 36.1096C31.2966 36.1269 31.9568 35.4867 31.9776 34.5885C31.9994 33.6518 31.3651 32.9391 30.4859 32.9127ZM48.2327 34.5014C48.2422 35.3524 48.9322 36.0211 49.813 36.0327C50.7074 36.0445 51.4447 35.3334 51.4305 34.4726C51.4158 33.5848 50.7142 32.9086 49.8112 32.9117C48.9334 32.9148 48.223 33.6303 48.2327 34.5014ZM38.5305 28.9328C38.4772 29.7461 39.2784 30.4599 40.1165 30.4498C40.9751 30.4396 41.7045 29.7333 41.7 28.9165C41.695 27.9853 41.0499 27.3165 40.1502 27.3097C39.0368 27.3249 38.5912 28.0075 38.5305 28.9328ZM49.9025 44.1078C49.0486 44.0898 48.2764 44.8118 48.2344 45.6674C48.1943 46.4842 48.9546 47.2626 49.828 47.2989C50.652 47.3331 51.4167 46.5723 51.4309 45.7042C51.4445 44.8847 50.7169 44.1249 49.9025 44.1078ZM30.4896 47.3189C31.3008 47.3091 32.1387 46.547 32.0665 45.774C31.9822 44.8719 31.5836 44.2231 30.4794 44.1938C29.5724 44.1698 28.9091 44.806 28.9071 45.6799C28.9047 46.6764 29.536 47.3302 30.4896 47.3189ZM41.6371 51.3297C41.6385 50.4431 40.9231 49.7448 40.0328 49.7636C39.1652 49.782 38.4881 50.4605 38.4868 51.3124C38.4855 52.2606 39.1203 52.91 40.0465 52.908C40.9385 52.9061 41.6356 52.2144 41.6371 51.3297ZM54.7015 38.7215C53.9973 38.7061 53.3288 39.3237 53.3013 40.0153C53.2728 40.7303 53.9161 41.428 54.6473 41.4353C55.2526 41.4413 56.0012 40.9938 55.9794 40.1135C56.0002 39.3766 55.4131 38.737 54.7015 38.7215ZM31.5602 27.6546C31.5906 28.3665 32.1871 28.8992 32.918 28.8669C33.669 28.8338 34.1985 28.2348 34.1636 27.4579C34.1298 26.7065 33.5109 26.091 32.816 26.1179C32.0334 26.1481 31.5228 26.773 31.5602 27.6546ZM25.6276 38.7771C24.9372 38.7729 24.2553 39.4357 24.2458 40.1201C24.2361 40.8265 24.8811 41.4804 25.5892 41.4821C26.3338 41.4839 26.9076 40.9376 26.9114 40.2229C26.9161 39.3659 26.3974 38.7818 25.6276 38.7771ZM31.5728 52.6834C31.5688 53.474 32.1466 54.094 32.8958 54.1027C33.6368 54.1114 34.2317 53.4924 34.2378 52.7063C34.2433 51.9915 33.6779 51.4313 32.9444 51.4247C32.1454 51.4176 31.5765 51.9396 31.5728 52.6834ZM47.4261 51.3872C46.6756 51.4012 46.0847 52.0051 46.1002 52.7421C46.115 53.4408 46.7665 54.0983 47.4464 54.1007C48.1018 54.1029 48.766 53.4025 48.7654 52.7101C48.7647 51.969 48.1618 51.3735 47.4261 51.3872ZM47.3493 28.789C48.095 28.8032 48.7131 28.2371 48.7462 27.5097C48.7771 26.8332 48.1137 26.1326 47.4254 26.1148C46.659 26.095 46.1143 26.6333 46.0992 27.4256C46.0835 28.2466 46.5673 28.7743 47.3493 28.789ZM40.1083 23.2752C40.7133 23.2749 41.1719 22.7981 41.1684 22.1729C41.1646 21.5047 40.7595 21.0629 40.139 21.0503C39.496 21.0373 39.032 21.5104 39.0363 22.1745C39.0403 22.7921 39.511 23.2754 40.1083 23.2752ZM24.6258 50.2296C25.1967 50.2677 25.7986 49.6976 25.8009 49.1168C25.803 48.581 25.2546 48.0089 24.7068 47.9755C24.1988 47.9446 23.5883 48.5343 23.5776 49.0661C23.5661 49.6413 24.0622 50.192 24.6258 50.2296ZM40.0532 56.9306C39.5074 56.9346 38.9675 57.4847 38.9582 58.0463C38.9488 58.6129 39.4697 59.1574 40.0302 59.1668C40.6241 59.1767 41.1741 58.6249 41.1673 58.0261C41.161 57.4836 40.5947 56.9267 40.0532 56.9306ZM56.7574 31.0755C56.737 30.5406 56.1606 29.9916 55.614 29.9866C55.0915 29.9818 54.4937 30.5832 54.4997 31.1075C54.5061 31.6455 55.0961 32.254 55.6003 32.2426C56.1551 32.23 56.7775 31.6022 56.7574 31.0755ZM56.7619 49.001C56.7496 48.4112 56.2668 47.9675 55.6428 47.9723C55.0508 47.9769 54.538 48.4869 54.5595 49.0495C54.5823 49.6454 55.0608 50.107 55.6538 50.1049C56.3335 50.1025 56.7758 49.662 56.7619 49.001ZM23.5718 31.1823C23.5607 31.8245 23.9913 32.2497 24.6481 32.2451C25.2901 32.2406 25.721 31.7997 25.7051 31.1634C25.6891 30.5191 25.2711 30.1106 24.6302 30.1128C24.0003 30.115 23.583 30.5367 23.5718 31.1823ZM49.1135 22.988C49.1038 23.5384 49.4888 23.7975 49.9373 23.8237C50.4058 23.8509 50.76 23.5832 50.7816 23.0382C50.8021 22.5179 50.4719 22.1321 49.9852 22.1173C49.5285 22.1033 49.122 22.5001 49.1135 22.988ZM19.5814 40.1386C19.5654 40.5394 20.0667 41.0845 20.4672 41.0282C20.9324 40.9629 21.2741 40.6895 21.3047 40.1783C21.333 39.7051 20.9179 39.3123 20.4296 39.3107C19.9964 39.3093 19.5992 39.6971 19.5814 40.1386ZM49.1779 57.2116C49.1671 57.6253 49.6269 58.072 50.0703 58.0787C50.4341 58.0842 50.9167 57.5815 50.8925 57.1917C50.8606 56.6784 50.5569 56.417 50.1696 56.3714C49.533 56.3609 49.1915 56.6887 49.1779 57.2116ZM30.2993 22.1385C29.8553 22.0519 29.4438 22.5114 29.4355 23.0123C29.4273 23.5151 29.6826 23.7966 30.1693 23.8436C30.6978 23.8947 31.0685 23.5516 31.0857 22.9263C31.1245 22.4732 30.7553 22.2274 30.2993 22.1385ZM60.6896 40.0731C60.6568 39.5815 60.3775 39.2493 59.8752 39.1834C59.4143 39.1229 59.0447 39.5422 59.0201 40.0663C58.9926 40.6497 59.3812 40.8032 59.7635 40.9057C60.2784 40.9157 60.7191 40.5147 60.6896 40.0731ZM30.3966 56.3754C29.9988 56.3339 29.4272 56.8024 29.4541 57.2094C29.4864 57.696 29.7799 58.0442 30.2746 58.0868C30.7725 58.1295 31.0901 57.8524 31.1598 57.4631C31.2177 56.8628 30.866 56.4244 30.3966 56.3754Z" fill="#82BAF6"/>
</svg>
