<svg width="41" height="41" viewBox="0 0 41 41" fill="none" xmlns="http://www.w3.org/2000/svg">
    <rect x="0.5" y="0.642578" width="40" height="40" rx="20" fill="#EFF8FF"/>
    <path d="M28.5 29.6426V27.6426C28.5 26.5817 28.0786 25.5643 27.3284 24.8142C26.5783 24.064 25.5609 23.6426 24.5 23.6426H16.5C15.4391 23.6426 14.4217 24.064 13.6716 24.8142C12.9214 25.5643 12.5 26.5817 12.5 27.6426V29.6426M24.5 15.6426C24.5 17.8517 22.7091 19.6426 20.5 19.6426C18.2909 19.6426 16.5 17.8517 16.5 15.6426C16.5 13.4334 18.2909 11.6426 20.5 11.6426C22.7091 11.6426 24.5 13.4334 24.5 15.6426Z" stroke="#0f171c" stroke-width="2" stroke-linecap="round" stroke-linejoin="round"/>
</svg>
