<svg xmlns="http://www.w3.org/2000/svg" width="133" height="33" viewBox="0 0 133 33"><defs><style>.a{fill:none;}.b{fill:#7a7a7a;}</style></defs><g transform="translate(-1170 -4108)"><path class="a" d="M10,0H123l10,10V23L123,33H10L0,23V10Z" transform="translate(1170 4108)"/><g transform="translate(7 1)"><g transform="translate(1192.759 4120.05)"><path class="b" d="M146.165,179.38h3.549c1.307-.021,2.741.319,2.741,1.9a1.706,1.706,0,0,1-1,1.53,1.8,1.8,0,0,1,1.307,1.8c0,1.806-1.328,2.359-2.954,2.359h-3.645V179.38Zm1.976,2.986h1.53a.737.737,0,0,0,.807-.723c0-.553-.393-.733-.807-.733h-1.53v1.456Zm0,3.018h1.583c.627,0,1.062-.223,1.062-.85,0-.669-.467-.893-1.062-.893h-1.583Z" transform="translate(-146.165 -179.379)"/><path class="b" d="M222.912,179.389h2.008l2.837,7.587H225.7l-.467-1.36h-2.646l-.478,1.36h-2.029Zm.127,4.76h1.721l-.839-2.656H223.9Z" transform="translate(-213.18 -179.388)"/><path class="b" d="M308.336,179.389h2.03L313,184.064h.021v-4.675h1.86v7.587h-2.03l-2.635-4.728H310.2v4.728h-1.86Z" transform="translate(-293.207 -179.388)"/><path class="b" d="M392.957,179.389h1.976V182.3l2.5-2.912h2.455l-2.805,2.986,3.156,4.6h-2.454l-2.04-3.187-.808.85v2.338h-1.976v-7.587Z" transform="translate(-369.934 -179.388)"/></g><g transform="translate(1227.039 4120.213)"><path class="b" d="M51.126,279.3h-2.17v5.644H47.061V279.3h-2.17v-1.63h6.235Z" transform="translate(-44.891 -277.514)"/><path class="b" d="M99.324,277.668h3.709c1.284,0,2.547.581,2.547,2.048a1.871,1.871,0,0,1-1.141,1.824v.02c.774.184,1,1.049,1.059,1.742.02.305.051,1.375.306,1.64h-1.875a3.518,3.518,0,0,1-.214-1.161c-.051-.734-.173-1.487-1.059-1.487h-1.437v2.649h-1.9Zm1.9,3.158h1.589a.78.78,0,0,0,.876-.855c0-.54-.428-.785-.958-.785h-1.508S101.219,280.826,101.219,280.826Z" transform="translate(-92.253 -277.515)"/><path class="b" d="M152.946,277.668h1.926l2.72,7.274h-1.977l-.448-1.3H152.63l-.458,1.3h-1.946Zm.122,4.564h1.651l-.8-2.547h-.02Z" transform="translate(-136.543 -277.515)"/><path class="b" d="M211.015,277.668h1.946l2.527,4.483h.021v-4.483h1.783v7.274h-1.946l-2.527-4.534h-.02v4.534h-1.783v-7.274Z" transform="translate(-189.436 -277.515)"/><path class="b" d="M267.971,281.471c.041.856.571,1.131,1.376,1.131.57,0,1.161-.2,1.161-.743,0-.642-1.039-.764-2.089-1.06s-2.129-.764-2.129-2.1c0-1.589,1.6-2.211,2.965-2.211,1.447,0,2.9.7,2.914,2.343h-1.895c.03-.662-.591-.876-1.172-.876-.407,0-.917.142-.917.621,0,.56,1.049.662,2.109.958s2.109.784,2.109,2.1c0,1.844-1.569,2.435-3.169,2.435-1.671,0-3.148-.734-3.159-2.6h1.9Z" transform="translate(-237.345 -276.489)"/><path class="b" d="M321.608,277.668h5.359v1.518H323.5v1.488h3v1.467h-3v2.8h-1.9Z" transform="translate(-285.664 -277.515)"/><path class="b" d="M369.535,277.668h5.8v1.518h-3.9v1.274H375v1.467H371.43v1.386h4v1.63h-5.9v-7.274Z" transform="translate(-327.365 -277.515)"/><path class="b" d="M423.263,277.668h3.709c1.284,0,2.547.581,2.547,2.048a1.871,1.871,0,0,1-1.141,1.824v.02c.774.184,1,1.049,1.059,1.742.021.305.051,1.375.306,1.64h-1.875a3.512,3.512,0,0,1-.214-1.161c-.051-.734-.173-1.487-1.059-1.487h-1.436v2.649h-1.9v-7.274Zm1.9,3.158h1.589a.779.779,0,0,0,.876-.855c0-.54-.428-.785-.958-.785h-1.508Z" transform="translate(-374.114 -277.515)"/></g><g transform="translate(1176.5 4119.167)"><rect class="b" width="9.656" height="1.934" transform="translate(0 0)"/><rect class="b" width="9.656" height="1.933" transform="translate(0 6.96)"/><rect class="b" width="9.656" height="1.934" transform="translate(0 3.48)"/></g></g></g></svg>