<svg width="99" height="99" viewBox="0 0 99 99" fill="none" xmlns="http://www.w3.org/2000/svg">
<circle cx="49.5" cy="49.5" r="49.5" fill="#0E3452"/>
<path opacity="0.03" fill-rule="evenodd" clip-rule="evenodd" d="M49.5 93.3428C73.7137 93.3428 93.3428 73.7137 93.3428 49.5C93.3428 25.2863 73.7137 5.65714 49.5 5.65714C25.2863 5.65714 5.65714 25.2863 5.65714 49.5C5.65714 73.7137 25.2863 93.3428 49.5 93.3428ZM49.5 99C76.8381 99 99 76.8381 99 49.5C99 22.1619 76.8381 0 49.5 0C22.1619 0 0 22.1619 0 49.5C0 76.8381 22.1619 99 49.5 99Z" fill="#03CA9B"/>
<path opacity="0.3" fill-rule="evenodd" clip-rule="evenodd" d="M94.7572 49.5001C94.7572 74.4949 74.4949 94.7572 49.5001 94.7572C24.5052 94.7572 4.24292 74.4949 4.24292 49.5001C4.24292 24.5052 24.5052 4.24292 49.5001 4.24292C74.4949 4.24292 94.7572 24.5052 94.7572 49.5001ZM49.5001 93.3429C73.7138 93.3429 93.3429 73.7138 93.3429 49.5001C93.3429 25.2863 73.7138 5.65721 49.5001 5.65721C25.2863 5.65721 5.65721 25.2863 5.65721 49.5001C5.65721 73.7138 25.2863 93.3429 49.5001 93.3429Z" fill="#0B1923"/>
<g clip-path="url(#clip0_3001_9234)">
<path fill-rule="evenodd" clip-rule="evenodd" d="M64.0512 51.0264C66.9719 50.2909 68.8017 48.4472 69.575 45.5088C70.5758 41.7067 69.5533 38.7312 66.3997 36.4151C64.7422 35.1976 62.8822 34.3782 60.9609 33.6927C60.5942 33.5619 60.5111 33.4023 60.6 33.0586C60.9319 31.7742 61.256 30.4878 61.5782 29.2011C61.7663 28.4498 61.9512 27.6977 62.1406 26.9269C62.2266 26.5772 62.3135 26.2236 62.4021 25.8646L57.7757 24.7127L55.9118 32.161L52.1593 31.2689L54.0217 23.7752L49.4217 22.6287C49.3983 22.6984 49.376 22.761 49.3552 22.8191C49.3153 22.9312 49.2812 23.0267 49.2568 23.1245C49.1388 23.5968 49.0203 24.069 48.9019 24.5412C48.4645 26.2848 48.0271 28.0283 47.6112 29.7771C47.512 30.1939 47.374 30.2666 46.9711 30.1602C45.7082 29.827 44.4397 29.5154 43.1713 29.2038C42.8285 29.1195 42.4857 29.0353 42.143 28.9507C41.1965 28.7169 40.2495 28.4854 39.2899 28.2509C38.8895 28.1531 38.487 28.0547 38.0814 27.9554L36.8497 32.8895C36.9814 32.9215 37.11 32.9515 37.2362 32.981C37.5033 33.0434 37.7598 33.1033 38.0134 33.174C38.3026 33.2548 38.5943 33.3295 38.886 33.4043C39.6171 33.5917 40.3485 33.7792 41.0412 34.0611C42.1441 34.5102 42.5969 35.6347 42.3113 36.7857C42.0693 37.7611 41.8276 38.7365 41.5859 39.712C41.0722 41.7854 40.5585 43.8587 40.0418 45.9314C39.7395 47.1439 39.4353 48.356 39.131 49.5681C38.4904 52.1205 37.8497 54.673 37.227 57.2297C37.0225 58.0692 36.0974 58.8633 35.1095 58.5762C34.3196 58.3465 33.5145 58.1691 32.7011 57.9898C32.3454 57.9114 31.9881 57.8327 31.6299 57.7491L29.3464 63.0126L38.7289 65.3861L36.8053 73.1379L41.4065 74.2809C41.4304 74.1923 41.4523 74.1123 41.4726 74.0381C41.5122 73.894 41.5458 73.7713 41.5768 73.6479C41.6874 73.2073 41.7982 72.7668 41.909 72.3263C42.3496 70.5737 42.7903 68.8212 43.221 67.0662C43.2878 66.7944 43.3642 66.6209 43.6809 66.7054C44.5437 66.9352 45.4067 67.1644 46.3029 67.4025C46.5567 67.4699 46.8132 67.538 47.073 67.607L45.1853 75.228L49.7769 76.3715C49.7993 76.3051 49.821 76.2448 49.8413 76.1883C49.8815 76.0764 49.9163 75.9794 49.9411 75.8799C50.0511 75.4384 50.1614 74.9971 50.2717 74.5557C50.7194 72.7642 51.1671 70.9728 51.5968 69.177C51.6957 68.7633 51.8477 68.6244 52.2745 68.7302C52.5808 68.8063 52.8951 68.8493 53.2095 68.8923C53.3604 68.9129 53.5113 68.9336 53.6614 68.9579C56.0563 69.3452 58.458 69.4864 60.8582 69.0415C63.0255 68.6396 64.8806 67.6694 66.27 65.9059C67.7643 64.0091 68.5325 61.8236 68.8613 59.4589C69.1984 57.0329 68.5863 54.8924 66.8104 53.1863C66.2366 52.6352 65.5884 52.1616 64.9365 51.6855C64.6399 51.4689 64.3426 51.2517 64.0512 51.0264ZM50.9177 46.6953C52.9813 47.1836 55.0555 47.5604 57.1898 47.2168C60.2829 46.719 61.1975 43.9948 60.6802 42.0102C60.3155 40.6106 59.2822 39.7385 58.0762 39.0519C56.1959 37.9813 54.1226 37.4994 52.0497 37.0176C51.7861 36.9563 51.522 36.8949 51.2588 36.8325C50.9043 36.7484 50.8419 36.9735 50.7758 37.2472C50.5894 38.0204 50.3954 38.7918 50.2014 39.5632C50.0959 39.9824 49.9905 40.4017 49.8862 40.8213C49.5889 42.0177 49.2928 43.2144 48.992 44.4305L48.5799 46.0957C48.8472 46.1646 49.1059 46.2325 49.359 46.2991C49.8944 46.4398 50.4046 46.5739 50.9177 46.6953ZM46.5734 54.1166C46.023 56.3131 45.4726 58.5096 44.9173 60.7049C44.8334 61.037 44.9764 61.0957 45.2579 61.157C45.9067 61.2982 46.5534 61.4507 47.2001 61.6032C48.4146 61.8897 49.629 62.1762 50.8564 62.387C52.5386 62.6757 54.2495 62.718 55.9434 62.3239C59.2762 61.5483 60.24 57.8332 58.5868 55.588C57.8111 54.5345 56.7602 53.8209 55.6053 53.2492C53.3147 52.1151 50.8517 51.5505 48.3953 50.9875C48.0866 50.9168 47.7781 50.846 47.4701 50.7742C47.456 50.7918 47.4422 50.8065 47.4299 50.8196C47.4071 50.844 47.3894 50.8629 47.3838 50.8849C47.1137 51.9606 46.8441 53.0364 46.5745 54.1123L46.5734 54.1166Z" fill="#03CA9B"/>
</g>
<defs>
<clipPath id="clip0_3001_9234">
<rect width="53.7429" height="53.7429" fill="white" transform="translate(22.6287 22.6287)"/>
</clipPath>
</defs>
</svg>
