<svg width="152" height="121" viewBox="0 0 152 121" fill="none" xmlns="http://www.w3.org/2000/svg">
<circle cx="76" cy="52.4512" r="52" fill="#EAECF0"/>
<g filter="url(#filter0_dd_6591_165081)">
<path d="M77.6 16.4512C66.8273 16.4512 57.2978 21.7745 51.4987 29.9341C49.605 29.4875 47.6301 29.2512 45.6 29.2512C31.4615 29.2512 20 40.7127 20 54.8512C20 68.9897 31.4615 80.4512 45.6 80.4512L109.6 80.4512C121.971 80.4512 132 70.4223 132 58.0512C132 45.68 121.971 35.6512 109.6 35.6512C108.721 35.6512 107.854 35.7018 107.002 35.8002C102.098 24.4189 90.7797 16.4512 77.6 16.4512Z" fill="#F9FAFB"/>
<ellipse cx="45.6" cy="54.851" rx="25.6" ry="25.6" fill="url(#paint0_linear_6591_165081)"/>
<circle cx="77.6001" cy="48.4512" r="32" fill="url(#paint1_linear_6591_165081)"/>
<ellipse cx="109.6" cy="58.0514" rx="22.4" ry="22.4" fill="url(#paint2_linear_6591_165081)"/>
</g>
<circle cx="21" cy="19.4512" r="5" fill="#F2F4F7"/>
<circle cx="18" cy="109.451" r="7" fill="#F2F4F7"/>
<circle cx="145" cy="35.4512" r="7" fill="#F2F4F7"/>
<circle cx="134" cy="8.45117" r="4" fill="#F2F4F7"/>
<g filter="url(#filter1_b_6591_165081)">
<rect x="52" y="62.4512" width="48" height="48" rx="24" fill="#344054" fill-opacity="0.4"/>
<g clip-path="url(#clip0_6591_165081)">
<path d="M82.0001 84.4512H80.7401C80.366 83.0022 79.5929 81.6872 78.5088 80.6556C77.4246 79.624 76.0728 78.9172 74.607 78.6154C73.1412 78.3137 71.6202 78.4292 70.2168 78.9488C68.8133 79.4683 67.5838 80.3711 66.6678 81.5546C65.7518 82.738 65.1861 84.1546 65.035 85.6435C64.8839 87.1324 65.1535 88.6338 65.8131 89.9771C66.4727 91.3205 67.4958 92.4518 68.7663 93.2427C70.0368 94.0336 71.5036 94.4523 73.0001 94.4512H82.0001C83.3262 94.4512 84.598 93.9244 85.5356 92.9867C86.4733 92.049 87.0001 90.7773 87.0001 89.4512C87.0001 88.1251 86.4733 86.8533 85.5356 85.9156C84.598 84.978 83.3262 84.4512 82.0001 84.4512Z" stroke="white" stroke-width="2" stroke-linecap="round" stroke-linejoin="round"/>
</g>
</g>
<defs>
<filter id="filter0_dd_6591_165081" x="0" y="16.4512" width="152" height="104" filterUnits="userSpaceOnUse" color-interpolation-filters="sRGB">
<feFlood flood-opacity="0" result="BackgroundImageFix"/>
<feColorMatrix in="SourceAlpha" type="matrix" values="0 0 0 0 0 0 0 0 0 0 0 0 0 0 0 0 0 0 127 0" result="hardAlpha"/>
<feMorphology radius="4" operator="erode" in="SourceAlpha" result="effect1_dropShadow_6591_165081"/>
<feOffset dy="8"/>
<feGaussianBlur stdDeviation="4"/>
<feColorMatrix type="matrix" values="0 0 0 0 0.0627451 0 0 0 0 0.0941176 0 0 0 0 0.156863 0 0 0 0.03 0"/>
<feBlend mode="normal" in2="BackgroundImageFix" result="effect1_dropShadow_6591_165081"/>
<feColorMatrix in="SourceAlpha" type="matrix" values="0 0 0 0 0 0 0 0 0 0 0 0 0 0 0 0 0 0 127 0" result="hardAlpha"/>
<feMorphology radius="4" operator="erode" in="SourceAlpha" result="effect2_dropShadow_6591_165081"/>
<feOffset dy="20"/>
<feGaussianBlur stdDeviation="12"/>
<feColorMatrix type="matrix" values="0 0 0 0 0.0627451 0 0 0 0 0.0941176 0 0 0 0 0.156863 0 0 0 0.08 0"/>
<feBlend mode="normal" in2="effect1_dropShadow_6591_165081" result="effect2_dropShadow_6591_165081"/>
<feBlend mode="normal" in="SourceGraphic" in2="effect2_dropShadow_6591_165081" result="shape"/>
</filter>
<filter id="filter1_b_6591_165081" x="44" y="54.4512" width="64" height="64" filterUnits="userSpaceOnUse" color-interpolation-filters="sRGB">
<feFlood flood-opacity="0" result="BackgroundImageFix"/>
<feGaussianBlur in="BackgroundImageFix" stdDeviation="4"/>
<feComposite in2="SourceAlpha" operator="in" result="effect1_backgroundBlur_6591_165081"/>
<feBlend mode="normal" in="SourceGraphic" in2="effect1_backgroundBlur_6591_165081" result="shape"/>
</filter>
<linearGradient id="paint0_linear_6591_165081" x1="25.9429" y1="37.9367" x2="71.2" y2="80.4509" gradientUnits="userSpaceOnUse">
<stop stop-color="#D0D5DD"/>
<stop offset="0.350715" stop-color="white" stop-opacity="0"/>
</linearGradient>
<linearGradient id="paint1_linear_6591_165081" x1="53.0287" y1="27.3083" x2="109.6" y2="80.4511" gradientUnits="userSpaceOnUse">
<stop stop-color="#D0D5DD"/>
<stop offset="0.350715" stop-color="white" stop-opacity="0"/>
</linearGradient>
<linearGradient id="paint2_linear_6591_165081" x1="92.3999" y1="43.2514" x2="132" y2="80.4513" gradientUnits="userSpaceOnUse">
<stop stop-color="#D0D5DD"/>
<stop offset="0.350715" stop-color="white" stop-opacity="0"/>
</linearGradient>
<clipPath id="clip0_6591_165081">
<rect width="24" height="24" fill="white" transform="translate(64 74.4512)"/>
</clipPath>
</defs>
</svg>
