<svg width="57" height="57" viewBox="0 0 57 57" fill="none" xmlns="http://www.w3.org/2000/svg">
<circle cx="28.5" cy="28.5" r="28.5" fill="#0E3452"/>
<path opacity="0.03" fill-rule="evenodd" clip-rule="evenodd" d="M28.5 53.7429C42.4412 53.7429 53.7429 42.4412 53.7429 28.5C53.7429 14.5588 42.4412 3.25714 28.5 3.25714C14.5588 3.25714 3.25714 14.5588 3.25714 28.5C3.25714 42.4412 14.5588 53.7429 28.5 53.7429ZM28.5 57C44.2401 57 57 44.2401 57 28.5C57 12.7599 44.2401 0 28.5 0C12.7599 0 0 12.7599 0 28.5C0 44.2401 12.7599 57 28.5 57Z" fill="#82BAF6"/>
<path opacity="0.3" fill-rule="evenodd" clip-rule="evenodd" d="M54.5572 28.5C54.5572 42.891 42.891 54.5572 28.5 54.5572C14.1091 54.5572 2.44287 42.891 2.44287 28.5C2.44287 14.1091 14.1091 2.44287 28.5 2.44287C42.891 2.44287 54.5572 14.1091 54.5572 28.5ZM28.5 53.7429C42.4413 53.7429 53.7429 42.4413 53.7429 28.5C53.7429 14.5588 42.4413 3.25716 28.5 3.25716C14.5588 3.25716 3.25716 14.5588 3.25716 28.5C3.25716 42.4413 14.5588 53.7429 28.5 53.7429Z" fill="#0B1923"/>
<g clip-path="url(#clip0_3001_9238)">
<path d="M28.6636 13.6458C29.3042 14.7065 29.9196 15.7241 30.5336 16.7425C32.9225 20.7043 35.3058 24.6696 37.7083 28.6232C37.9356 28.9972 37.8751 29.1333 37.509 29.3465C34.6485 31.0119 31.8021 32.7014 28.9555 34.3906C28.7754 34.4975 28.6447 34.5663 28.4321 34.44C25.485 32.6876 22.532 30.9453 19.5808 29.1997C19.521 29.1643 19.4664 29.12 19.376 29.0563C22.4643 23.9321 25.5481 18.8152 28.6636 13.6458ZM37.9054 30.3822C37.7847 30.3619 37.7131 30.3928 37.6466 30.4321C34.8015 32.1139 31.9536 33.7911 29.1163 35.4858C28.7786 35.6875 28.538 35.7164 28.1771 35.4996C25.4312 33.85 22.6679 32.2296 19.9096 30.6006C19.7855 30.5273 19.6584 30.459 19.5327 30.3885C19.5163 30.4123 19.4999 30.4362 19.4835 30.46C22.5349 34.7601 25.5863 39.0602 28.6651 43.3989C31.7603 39.0386 34.8329 34.7104 37.9054 30.3822Z" fill="#82BAF6"/>
</g>
<defs>
<clipPath id="clip0_3001_9238">
<rect width="30.9429" height="30.9429" fill="white" transform="translate(13.0286 13.0286)"/>
</clipPath>
</defs>
</svg>
