<svg width="32" height="32" viewBox="0 0 32 32" fill="none" xmlns="http://www.w3.org/2000/svg">
<path d="M5.33332 9.59998C2.9769 9.59998 1.06665 7.68973 1.06665 5.33332C1.06665 2.9769 2.9769 1.06665 5.33332 1.06665C7.68973 1.06665 9.59998 2.9769 9.59998 5.33332C9.59998 7.68973 7.68973 9.59998 5.33332 9.59998ZM5.33332 9.59998V22.4M5.33332 22.4C7.68973 22.4 9.59998 24.3102 9.59998 26.6666C9.59998 29.0231 7.68973 30.9333 5.33332 30.9333C2.9769 30.9333 1.06665 29.0231 1.06665 26.6666C1.06665 24.3102 2.9769 22.4 5.33332 22.4ZM26.6666 9.59998C24.3102 9.59998 22.4 7.68973 22.4 5.33332C22.4 2.9769 24.3102 1.06665 26.6666 1.06665C29.0231 1.06665 30.9333 2.9769 30.9333 5.33332C30.9333 7.68973 29.0231 9.59998 26.6666 9.59998ZM26.6666 9.59998V11.7333C26.6666 15.2679 23.8013 18.1333 20.2666 18.1333H5.33332" stroke="#01A781FF" stroke-linecap="round" stroke-linejoin="round"/>
</svg>
