
        <svg xmlns="http://www.w3.org/2000/svg" xmlns:xlink="http://www.w3.org/1999/xlink" version="1.1" width="3150.7168239186376" height="1087.6362934142119" viewBox="0 0 3150.7168239186376 1087.6362934142119">
			
			<g transform="scale(7.53584119593187) translate(10, 10)">
				<defs id="SvgjsDefs3847"/><g id="SvgjsG3848" featureKey="symbolFeature-0" transform="matrix(1.382660756978338,0,0,1.382660756978338,8.045552306442232,-7.026072464126714)" fill="#fff"><path xmlns="http://www.w3.org/2000/svg" d="M93.271,56.043c-0.922-1.774-2.376-3.086-4.063-3.861c0.006-0.304,0.022-0.605,0.022-0.912  c0-21.175-15.855-38.706-36.314-41.375c-1.676-3.388-5.446-5.396-9.342-4.663c-3.143,0.591-5.559,2.816-6.552,5.628  C19.058,15.519,5.753,31.87,5.753,51.27c0,14.485,7.421,27.267,18.657,34.755c-0.15,3.877,2.334,7.508,6.23,8.634  c3.251,0.941,6.6-0.118,8.751-2.445c2.623,0.519,5.329,0.796,8.101,0.796c16.804,0,31.312-9.987,37.923-24.333  c1.404,0.031,2.837-0.278,4.172-0.972C93.823,65.502,95.474,60.28,93.271,56.043z M83.827,51.27c0,0.103-0.007,0.203-0.008,0.306  c-0.751,0.158-1.494,0.41-2.209,0.782c-3.133,1.628-4.846,4.906-4.639,8.217c-4.195,0.737-8.533,0.466-12.711-0.855  c-4.751-1.501-8.874-4.247-12.073-7.904c1.44-1.882,2.112-4.337,1.641-6.849c-0.882-4.693-5.403-7.784-10.096-6.902  c-0.166,0.032-0.325,0.077-0.487,0.117c-1.521-2.817-2.372-5.972-2.436-9.265c-0.05-2.479,0.364-4.89,1.161-7.161  c1.475,0.59,3.125,0.79,4.801,0.474c3.555-0.668,6.185-3.426,6.872-6.763C70.758,18.398,83.827,33.332,83.827,51.27z M11.158,51.27  c0-16.383,10.901-30.262,25.829-34.78c0.18,0.536,0.408,1.045,0.681,1.523c-3.283,7.375-2.951,15.956,0.993,23.048  c-1.575,1.91-2.323,4.478-1.83,7.101c0.019,0.104,0.049,0.201,0.073,0.302c-4.041,3.876-7.017,8.758-8.614,14.28  c-1.594,5.511-1.686,11.213-0.349,16.637c-0.568,0.415-1.089,0.896-1.544,1.444C17.181,74.228,11.158,63.442,11.158,51.27z   M47.492,87.604c-1.988,0-3.938-0.167-5.84-0.476c0.37-4.045-2.161-7.915-6.207-9.084c-0.782-0.227-1.57-0.33-2.346-0.334  c-1.017-4.399-0.908-9.009,0.381-13.466c1.215-4.2,3.395-7.949,6.326-11.028c1.912,1.585,4.489,2.339,7.12,1.845  c0.252-0.047,0.499-0.109,0.742-0.18c3.898,4.653,9.036,8.118,14.962,9.991c3.204,1.013,6.487,1.516,9.754,1.516  c2.24,0,4.471-0.251,6.665-0.72c0.381,0.443,0.802,0.84,1.255,1.19C74.459,79.115,61.95,87.604,47.492,87.604z"/></g><g id="SvgjsG3849" featureKey="nameFeature-0" transform="matrix(2.1517300473812524,0,0,2.1517300473812524,152.55723212939498,-6.820758516525348)" fill="#fff"><path d="M1.6 25.16 l0 -13.16 l5.04 0 l0 13.16 l-5.04 0 z M1.6 40 l0 -13.16 l5.04 0 l0 13.16 l-5.04 0 z M21.359 40 l-10.96 -28 l5.44 0 l5.84 14.96 l0 -14.96 l5.04 0 l0 28 l-5.36 0 z M10.479 40 l0 -23.2 l5.04 12.84 l0 10.36 l-5.04 0 z M34.198 40 l-3.72 -3.72 l0 -20.56 l3.72 -3.72 l3.56 0 l0 5.04 l-1.48 0 l-0.76 0.76 l0 16.4 l0.76 0.76 l1.48 0 l0 5.04 l-3.56 0 z M39.438 40 l0 -5.04 l1.48 0 l0.76 -0.76 l0 -3.16 l5.04 0 l0 5.24 l-3.72 3.72 l-3.56 0 z M41.678 20.96 l0 -3.16 l-0.76 -0.76 l-1.48 0 l0 -5.04 l3.56 0 l3.72 3.72 l0 5.24 l-5.04 0 z M59.597 40 l0 -5.04 l1.6 0 l0.76 -0.76 l0 -16.4 l-0.76 -0.76 l-1.6 0 l0 -5.04 l3.68 0 l3.72 3.72 l0 20.56 l-3.72 3.72 l-3.68 0 z M54.197 40 l-3.72 -3.72 l0 -20.56 l3.72 -3.72 l3.68 0 l0 5.04 l-1.6 0 l-0.76 0.76 l0 16.4 l0.76 0.76 l1.6 0 l0 5.04 l-3.68 0 z M78.35600000000001 31.32 l-7.6 -19.32 l5.4 0 l4.2 10.6 l4.16 -10.6 l5.4 0 l-7.6 19.32 l-3.96 0 z M70.83600000000001 40 l0 -23.24 l5.04 12.84 l0 10.4 l-5.04 0 z M84.83600000000001 40 l0 -10.4 l5.04 -12.84 l0 23.24 l-5.04 0 z M93.675 28.52 l0 -16.52 l5.04 0 l0 16.52 l-5.04 0 z M93.675 40 l0 -9.8 l5.04 0 l0 9.8 l-5.04 0 z M100.39500000000001 40 l0 -5.04 l7 0 l0 5.04 l-7 0 z M100.39500000000001 28.52 l0 -5.04 l4.76 0 l0 5.04 l-4.76 0 z M100.39500000000001 17.04 l0 -5.04 l7 0 l0 5.04 l-7 0 z"/></g><g id="SvgjsG3850" featureKey="sloganFeature-0" transform="matrix(1.2853851781087597,0,0,1.2853851781087597,139.85443513327053,79.08839493573356)" fill="#fff"><path d="M1.6692 8.475 l15.938 0 l0 2.3477 l-6.7954 0 l0 9.0932 l-2.3476 0 l0 -9.0932 l-6.7946 0 l0 -2.3477 z M35.297 17.557 l1.162 -0.017422 l0.034786 2.3242 l-1.1621 0.017402 c-0.18088 0.002754 -0.38542 0.0058984 -0.6087 0.0058984 c-1.614 0 -4.2026 -0.16008 -5.8378 -1.7712 c-0.72798 -0.71726 -1.1865 -1.629 -1.3698 -2.72 l-4.2054 0 l-0.016602 4.4896 l-2.3246 -0.0086328 l0.037402 -10.127 l0 -1.1635 l0.0043164 0 l0 -0.0043164 l1.1612 0.0043164 l10.951 0 c1.4728 0 3.6638 0.90678 3.6638 3.4048 c0 2.4982 -2.0362 3.405 -3.4048 3.405 l-3.4826 0 c0.12543 0.4252 0.32842 0.77924 0.61734 1.064 c1.1685 1.151 3.608 1.1146 4.7804 1.0969 z M23.331400000000002 13.0714 l10.041 -0.000019531 c0.10148 -0.0035352 0.40426 -0.041718 0.6538 -0.17971 c0.21608 -0.11955 0.43686 -0.32006 0.43686 -0.90076 c0 -0.46692 -0.15799 -0.71972 -0.56382 -0.90166 c-0.36882 -0.16531 -0.77152 -0.17865 -0.77532 -0.17865 l-9.7922 0 l0 2.1608 z M48.315400000000004 7.711 l9.1766 12.19 l-2.9508 0 l-2.566 -3.3974 l-7.3197 0 l-2.5286 3.3974 l-2.9177 0 z M46.4162 14.1556 l3.7983 0 l-1.8992 -2.5322 z M74.393 10.8272 c0.95568 0.96942 1.4718 2.2114 1.4534 3.497 c-0.02289 1.5915 -0.78998 3.0436 -2.16 4.0892 c-1.4271 1.089 -3.4354 1.6646 -5.8082 1.6646 c-4.5288 0 -6.808 -0.0667 -6.8304 -0.067344 l-1.1387 -0.03414 l0 -11.373 l7.9691 0 c3.5728 0 5.5148 1.2092 6.5148 2.2236 z M67.87840000000001 17.7304 c3.8486 0 5.5962 -1.7276 5.6208 -3.4396 c0.009414 -0.66168 -0.25962 -1.2893 -0.77796 -1.8153 c-0.9689 -0.9829 -2.6888 -1.5241 -4.843 -1.5241 l-5.6214 0 l0 6.737 c1.09 0.018965 2.963 0.041992 5.6214 0.041992 z M95.147 10.9512 l-13.59 0.000019531 l0 2.1863 l9.0642 0.03375 l-0.0086328 2.3478 l-9.0556 -0.03375 l0 2.1782 l13.59 0 l0 2.3477 l-15.938 0 l0 -11.407 l15.938 0 l0 2.3476 z M115.53540000000001 7.711 l9.1766 12.19 l-2.9508 0 l-2.566 -3.3974 l-7.3197 0 l-2.5286 3.3974 l-2.9177 0 z M113.6362 14.1556 l3.7983 0 l-1.8992 -2.5322 z M129.918 11.0046 c-0.21816 0.12059 -0.44118 0.32306 -0.44118 0.90966 c0 0.45724 0.14779 0.70718 0.52734 0.89108 c0.38386 0.18598 0.81196 0.19957 0.83354 0.2001 l8.5334 0.03336 c1.4828 0 3.6956 0.9158 3.6956 3.4388 s-2.0564 3.4388 -3.4388 3.4388 l-12.499 0 l0 -2.3477 l12.488 0 c0.1024 -0.0035352 0.40818 -0.04211 0.66022 -0.18152 c0.21828 -0.12072 0.44128 -0.32318 0.44128 -0.90964 c0 -0.45724 -0.14779 -0.70718 -0.52734 -0.89108 c-0.3827 -0.18547 -0.81038 -0.19947 -0.8343 -0.20012 l-8.5278 -0.03793 l0 0.0045703 c-1.4875 0 -3.7004 -0.9158 -3.7004 -3.4388 s2.0564 -3.4388 3.4388 -3.4388 l12.499 0 l0 2.3477 l-12.488 0 c-0.10229 0.0035352 -0.40834 0.04211 -0.6605 0.18152 z M149.198 11.0046 c-0.21816 0.12059 -0.44118 0.32306 -0.44118 0.90966 c0 0.45724 0.14779 0.70718 0.52734 0.89108 c0.38386 0.18598 0.81196 0.19957 0.83354 0.2001 l8.5334 0.03336 c1.4828 0 3.6956 0.9158 3.6956 3.4388 s-2.0564 3.4388 -3.4388 3.4388 l-12.499 0 l0 -2.3477 l12.488 0 c0.1024 -0.0035352 0.40818 -0.04211 0.66022 -0.18152 c0.21828 -0.12072 0.44128 -0.32318 0.44128 -0.90964 c0 -0.45724 -0.14779 -0.70718 -0.52734 -0.89108 c-0.3827 -0.18547 -0.81038 -0.19947 -0.8343 -0.20012 l-8.5278 -0.03793 l0 0.0045703 c-1.4875 0 -3.7004 -0.9158 -3.7004 -3.4388 s2.0564 -3.4388 3.4388 -3.4388 l12.499 0 l0 2.3477 l-12.488 0 c-0.10229 0.0035352 -0.40834 0.04211 -0.6605 0.18152 z M181.627 10.9512 l-13.59 0.000019531 l0 2.1863 l9.0642 0.03375 l-0.0086328 2.3478 l-9.0556 -0.03375 l0 2.1782 l13.59 0 l0 2.3477 l-15.938 0 l0 -11.407 l15.938 0 l0 2.3476 z M184.9692 8.475 l15.938 0 l0 2.3477 l-6.7954 0 l0 9.0932 l-2.3476 0 l0 -9.0932 l-6.7946 0 l0 -2.3477 z"/></g>
			</g>
		</svg>
	