<svg width="92" height="92" fill="none" xmlns="http://www.w3.org/2000/svg"><circle cx="46" cy="46" r="46" fill="#0E3452"/><path opacity=".03" fill-rule="evenodd" clip-rule="evenodd" d="M46 86.743c22.502 0 40.743-18.241 40.743-40.743C86.743 23.498 68.502 5.257 46 5.257 23.498 5.257 5.257 23.498 5.257 46c0 22.502 18.241 40.743 40.743 40.743ZM46 92c25.405 0 46-20.595 46-46S71.405 0 46 0 0 20.595 0 46s20.595 46 46 46Z" fill="#82BAF6"/><path opacity=".3" fill-rule="evenodd" clip-rule="evenodd" d="M88.057 46c0 23.228-18.83 42.057-42.057 42.057-23.227 0-42.057-18.83-42.057-42.057C3.943 22.773 22.773 3.943 46 3.943c23.228 0 42.057 18.83 42.057 42.057ZM46 86.743c22.502 0 40.743-18.241 40.743-40.743C86.743 23.498 68.502 5.257 46 5.257 23.498 5.257 5.257 23.498 5.257 46c0 22.502 18.241 40.743 40.743 40.743Z" fill="#0B1923"/><path d="M48.303 42.055a179.491 179.491 0 0 0 6.57-2.453c-.193.766-.35 1.393-.51 2.02-.32 1.258-.66 2.512-.955 3.776-.07.297-.243.416-.473.507-.615.245-1.232.486-1.855.711-1.242.45-2.486.898-3.735 1.33-.447.155-.713.37-.839.893-.497 2.068-1.072 4.117-1.614 6.175-.36 1.371-.707 2.747-1.072 4.117-.124.466-.289.92-.478 1.517 1.251.033 2.38.013 3.506.017 1.167.003 2.333 0 3.5 0h17.358c-.343 1.23-.674 2.369-.977 3.515-.244.925-.45 1.86-.68 2.789-.196.784-.391 1.568-.617 2.344-.037.129-.213.263-.352.304-.183.055-.393.022-.592.022H26.253l3.976-15.182c-1.02.09-1.887.603-2.81.921-.94.325-1.871.68-2.908 1.059.338-1.21.64-2.28.935-3.352.221-.8.447-1.6.644-2.408.079-.322.217-.466.556-.58 1.343-.453 2.663-.97 3.992-1.465.255-.095.513-.183.763-.29.378-.162.595-.397.703-.851.577-2.409 1.209-4.804 1.834-7.2.47-1.807.966-3.606 1.438-5.412.513-1.963.995-3.934 1.522-5.892.432-1.608.915-3.202 1.365-4.806.151-.538.27-1.085.404-1.633h14.759l-5.123 19.507Z" fill="#82BAF6"/></svg>
