<svg width="840" height="589" viewBox="0 0 840 589" fill="none" xmlns="http://www.w3.org/2000/svg">
<g clip-path="url(#clip0_1547_8443)">
<rect opacity="0.4" x="349.416" y="102.279" width="452.913" height="247.267" rx="2.5" stroke="#82BAF6"/>
<path opacity="0.9" d="M395.56 318.21L356.454 328.57H348.074V349.843H801.986V140.79L786.623 134.315L736.344 187.412L708.411 169.281L698.634 154.086L679.038 157.626L660.924 147.266L575.728 274.179H518.466L457.013 307.85H437.46L423.493 318.21H395.56Z" fill="url(#paint0_linear_1547_8443)"/>
<g filter="url(#filter0_d_1547_8443)">
<path d="M816.584 150.47L790.173 135.936C788.579 135.058 786.592 135.368 785.341 136.69L739.475 185.125C738.149 186.526 736.012 186.78 734.393 185.73L709.974 169.88C709.499 169.571 709.094 169.166 708.788 168.689L700.914 156.451C700.043 155.097 698.445 154.398 696.86 154.675L680.621 157.52C679.744 157.673 678.84 157.53 678.054 157.111L663 149.109C661.174 148.139 658.91 148.719 657.777 150.448L577.756 272.503C577.016 273.63 575.759 274.31 574.41 274.31H520.332C519.66 274.31 518.999 274.479 518.41 274.802L458.753 307.489C458.164 307.811 457.503 307.981 456.831 307.981H439.624C438.765 307.981 437.93 308.257 437.241 308.768L425.397 317.554C424.708 318.065 423.872 318.341 423.014 318.341H396.923C396.578 318.341 396.233 318.386 395.899 318.474L357.8 328.568C357.465 328.656 357.121 328.701 356.775 328.701H348.916" stroke="#82BAF6" stroke-width="2"/>
</g>
</g>
<path opacity="0.2" d="M173.319 35.28H827.798" stroke="#82BAF6"/>
<path opacity="0.1" fill-rule="evenodd" clip-rule="evenodd" d="M195.751 18.2933C195.751 21.1799 193.388 23.5199 190.473 23.5199C187.558 23.5199 185.195 21.1799 185.195 18.2933C185.195 15.4067 187.558 13.0667 190.473 13.0667C193.388 13.0667 195.751 15.4067 195.751 18.2933ZM211.586 18.2933C211.586 21.1799 209.223 23.5199 206.308 23.5199C203.393 23.5199 201.03 21.1799 201.03 18.2933C201.03 15.4067 203.393 13.0667 206.308 13.0667C209.223 13.0667 211.586 15.4067 211.586 18.2933ZM222.142 23.5199C225.057 23.5199 227.42 21.1799 227.42 18.2933C227.42 15.4067 225.057 13.0667 222.142 13.0667C219.227 13.0667 216.864 15.4067 216.864 18.2933C216.864 21.1799 219.227 23.5199 222.142 23.5199Z" fill="#82BAF6"/>
<path opacity="0.3" fill-rule="evenodd" clip-rule="evenodd" d="M198.39 65.72C198.39 64.0631 199.734 62.72 201.39 62.72H277.2C278.857 62.72 280.2 64.0631 280.2 65.72V72.7866C280.2 74.4434 278.857 75.7866 277.2 75.7866H201.39C199.734 75.7866 198.39 74.4434 198.39 72.7866V65.72ZM290.415 68.3334C290.415 66.6766 291.758 65.3334 293.415 65.3334H342.834C344.491 65.3334 345.834 66.6766 345.834 68.3334V70.1734C345.834 71.8303 344.491 73.1734 342.834 73.1734H293.415C291.758 73.1734 290.415 71.8303 290.415 70.1734V68.3334ZM565.189 66.6401C563.746 66.6401 562.576 67.8101 562.576 69.2534C562.576 70.6967 563.746 71.8667 565.189 71.8667H583.714C585.157 71.8667 586.327 70.6967 586.327 69.2534C586.327 67.8101 585.157 66.6401 583.714 66.6401H565.189ZM623.274 69.2534C623.274 67.8101 624.444 66.6401 625.887 66.6401H644.412C645.855 66.6401 647.025 67.8101 647.025 69.2534C647.025 70.6967 645.855 71.8667 644.412 71.8667H625.887C624.444 71.8667 623.274 70.6967 623.274 69.2534ZM656.236 66.6401C654.792 66.6401 653.622 67.8101 653.622 69.2534C653.622 70.6967 654.792 71.8667 656.236 71.8667H674.76C676.203 71.8667 677.374 70.6967 677.374 69.2534C677.374 67.8101 676.203 66.6401 674.76 66.6401H656.236ZM592.925 69.2534C592.925 67.8101 594.095 66.6401 595.538 66.6401H614.063C615.506 66.6401 616.676 67.8101 616.676 69.2534C616.676 70.6967 615.506 71.8667 614.063 71.8667H595.538C594.095 71.8667 592.925 70.6967 592.925 69.2534ZM686.585 66.6401C685.142 66.6401 683.971 67.8101 683.971 69.2534C683.971 70.6967 685.142 71.8667 686.585 71.8667H705.109C706.553 71.8667 707.723 70.6967 707.723 69.2534C707.723 67.8101 706.553 66.6401 705.109 66.6401H686.585ZM714.32 69.2534C714.32 67.8101 715.49 66.6401 716.933 66.6401H735.458C736.901 66.6401 738.071 67.8101 738.071 69.2534C738.071 70.6967 736.901 71.8667 735.458 71.8667H716.933C715.49 71.8667 714.32 70.6967 714.32 69.2534ZM747.282 66.6401C745.839 66.6401 744.669 67.8101 744.669 69.2534C744.669 70.6967 745.839 71.8667 747.282 71.8667H765.807C767.25 71.8667 768.42 70.6967 768.42 69.2534C768.42 67.8101 767.25 66.6401 765.807 66.6401H747.282ZM775.018 67.0266C775.018 65.3698 776.361 64.0266 778.018 64.0266H782.574C784.231 64.0266 785.574 65.3698 785.574 67.0266V71.4799C785.574 73.1368 784.231 74.4799 782.574 74.4799H778.018C776.361 74.4799 775.018 73.1368 775.018 71.4799V67.0266ZM795.171 64.0266C793.514 64.0266 792.171 65.3698 792.171 67.0266V71.4799C792.171 73.1368 793.514 74.4799 795.171 74.4799H799.727C801.384 74.4799 802.727 73.1368 802.727 71.4799V67.0266C802.727 65.3698 801.384 64.0266 799.727 64.0266H795.171Z" fill="#82BAF6"/>
<rect opacity="0.05" x="198.39" y="279.627" width="137.229" height="70.5601" rx="3" fill="#82BAF6"/>
<rect opacity="0.02" x="198.39" y="363.253" width="137.229" height="198.613" rx="3" fill="#82BAF6"/>
<rect opacity="0.05" x="348.814" y="363.253" width="453.913" height="96.6933" rx="3" fill="#82BAF6"/>
<rect opacity="0.02" x="348.814" y="473.013" width="453.913" height="88.8533" rx="3" fill="#82BAF6"/>
<rect opacity="0.4" x="198.89" y="101.113" width="136.229" height="38.1999" rx="2.5" stroke="#82BAF6"/>
<path d="M226.92 120.104C226.92 125.597 222.422 130.058 216.864 130.058C211.305 130.058 206.808 125.597 206.808 120.104C206.808 114.612 211.305 110.151 216.864 110.151C222.422 110.151 226.92 114.612 226.92 120.104Z" stroke="#82BAF6"/>
<g clip-path="url(#clip1_1547_8443)">
<path fill-rule="evenodd" clip-rule="evenodd" d="M220.436 120.475C221.153 120.297 221.603 119.848 221.793 119.134C222.038 118.21 221.787 117.486 221.013 116.923C220.606 116.627 220.149 116.428 219.678 116.261C219.588 116.229 219.567 116.19 219.589 116.107C219.671 115.795 219.75 115.482 219.829 115.169C219.875 114.986 219.921 114.803 219.967 114.616C219.988 114.531 220.01 114.445 220.031 114.358L218.896 114.078L218.438 115.889L217.517 115.672L217.974 113.85L216.844 113.571C216.839 113.588 216.833 113.603 216.828 113.617C216.818 113.645 216.81 113.668 216.804 113.692C216.775 113.806 216.746 113.921 216.717 114.036C216.609 114.46 216.502 114.884 216.4 115.309C216.376 115.41 216.342 115.428 216.243 115.402C215.933 115.321 215.621 115.245 215.31 115.17C215.226 115.149 215.142 115.129 215.057 115.108C214.825 115.051 214.592 114.995 214.357 114.938C214.259 114.914 214.16 114.89 214.06 114.866L213.758 116.066C213.79 116.074 213.822 116.081 213.853 116.088C213.918 116.103 213.981 116.118 214.043 116.135C214.114 116.155 214.186 116.173 214.258 116.191C214.437 116.237 214.617 116.282 214.787 116.351C215.058 116.46 215.169 116.733 215.099 117.013C215.039 117.25 214.98 117.487 214.921 117.725C214.794 118.229 214.668 118.733 214.541 119.237C214.467 119.531 214.393 119.826 214.318 120.121C214.161 120.741 214.003 121.362 213.85 121.984C213.8 122.188 213.573 122.381 213.33 122.311C213.137 122.255 212.939 122.212 212.739 122.168C212.652 122.149 212.564 122.13 212.476 122.11L211.916 123.39L214.219 123.967L213.747 125.851L214.877 126.129C214.882 126.108 214.888 126.088 214.893 126.07C214.902 126.035 214.911 126.005 214.918 125.975C214.946 125.868 214.973 125.761 215 125.654C215.108 125.228 215.216 124.802 215.322 124.375C215.338 124.309 215.357 124.267 215.435 124.288C215.647 124.343 215.859 124.399 216.079 124.457C216.141 124.473 216.204 124.49 216.268 124.507L215.804 126.36L216.932 126.638C216.937 126.622 216.943 126.607 216.947 126.593C216.957 126.566 216.966 126.542 216.972 126.518C216.999 126.411 217.026 126.303 217.053 126.196C217.163 125.761 217.273 125.325 217.379 124.888C217.403 124.788 217.44 124.754 217.545 124.78C217.62 124.798 217.697 124.809 217.774 124.819C217.812 124.824 217.849 124.829 217.885 124.835C218.473 124.929 219.063 124.964 219.652 124.855C220.185 124.758 220.64 124.522 220.981 124.093C221.348 123.632 221.537 123.101 221.617 122.526C221.7 121.936 221.55 121.415 221.114 121.001C220.973 120.867 220.814 120.751 220.654 120.636C220.581 120.583 220.508 120.53 220.436 120.475ZM217.212 119.422C217.718 119.541 218.228 119.633 218.752 119.549C219.511 119.428 219.736 118.766 219.609 118.283C219.519 117.943 219.265 117.731 218.969 117.564C218.508 117.304 217.999 117.187 217.49 117.069C217.425 117.055 217.36 117.04 217.296 117.024C217.208 117.004 217.193 117.059 217.177 117.125C217.131 117.313 217.084 117.501 217.036 117.688C217.01 117.79 216.984 117.892 216.959 117.994C216.886 118.285 216.813 118.576 216.739 118.872L216.638 119.277C216.703 119.293 216.767 119.31 216.829 119.326C216.961 119.36 217.086 119.393 217.212 119.422ZM216.145 121.227C216.01 121.761 215.875 122.295 215.739 122.829C215.718 122.909 215.753 122.924 215.822 122.939C215.981 122.973 216.14 123.01 216.299 123.047C216.597 123.117 216.895 123.186 217.197 123.238C217.61 123.308 218.03 123.318 218.446 123.222C219.264 123.034 219.501 122.13 219.095 121.585C218.904 121.328 218.646 121.155 218.363 121.016C217.8 120.74 217.196 120.603 216.592 120.466C216.517 120.449 216.441 120.432 216.365 120.414C216.362 120.418 216.358 120.422 216.355 120.425C216.35 120.431 216.345 120.436 216.344 120.441C216.278 120.703 216.212 120.964 216.145 121.226L216.145 121.227Z" fill="#82BAF6"/>
</g>
<path d="M255.785 120.104C255.785 125.597 251.287 130.058 245.728 130.058C240.17 130.058 235.672 125.597 235.672 120.104C235.672 114.612 240.17 110.151 245.728 110.151C251.287 110.151 255.785 114.612 255.785 120.104Z" stroke="#82BAF6"/>
<g clip-path="url(#clip2_1547_8443)">
<path d="M245.197 126.638H246.414L246.424 125.459C248.656 125.29 249.95 124.116 249.955 122.345C249.95 120.605 248.625 119.681 246.79 119.272L246.486 119.201L246.507 116.649C247.192 116.807 247.61 117.241 247.671 117.884H249.81C249.785 116.195 248.512 114.985 246.527 114.771L246.537 113.571H245.321L245.311 114.76C243.295 114.954 241.873 116.159 241.883 117.899C241.878 119.441 242.976 120.324 244.759 120.747L245.254 120.87L245.228 123.57C244.388 123.412 243.821 122.901 243.764 122.049H241.605C241.656 124.111 243.022 125.265 245.208 125.454L245.197 126.638ZM246.445 123.57L246.465 121.186C247.264 121.437 247.697 121.758 247.702 122.34C247.697 122.958 247.223 123.417 246.445 123.57ZM245.269 118.89C244.625 118.67 244.161 118.338 244.172 117.751C244.172 117.205 244.563 116.782 245.29 116.634L245.269 118.89Z" fill="#82BAF6"/>
</g>
<path opacity="0.18" fill-rule="evenodd" clip-rule="evenodd" d="M272.283 111.651C272.283 110.547 273.179 109.651 274.283 109.651H325.703C326.807 109.651 327.703 110.547 327.703 111.651V115.491C327.703 116.596 326.807 117.491 325.703 117.491H274.283C273.179 117.491 272.283 116.596 272.283 115.491V111.651ZM288.118 122.718C288.118 121.996 288.703 121.411 289.424 121.411H326.396C327.118 121.411 327.703 121.996 327.703 122.718C327.703 123.439 327.118 124.024 326.396 124.024H289.424C288.703 124.024 288.118 123.439 288.118 122.718ZM305.258 127.944C304.537 127.944 303.951 128.529 303.951 129.251C303.951 129.973 304.537 130.558 305.258 130.558H326.396C327.118 130.558 327.703 129.973 327.703 129.251C327.703 128.529 327.118 127.944 326.396 127.944H305.258Z" fill="#82BAF6"/>
<rect opacity="0.4" x="198.89" y="153.38" width="136.229" height="110.067" rx="2.5" stroke="#82BAF6"/>
<path opacity="0.18" fill-rule="evenodd" clip-rule="evenodd" d="M209.239 161.047C207.734 161.047 206.514 162.267 206.514 163.772C206.514 165.277 207.734 166.497 209.239 166.497H209.298C210.803 166.497 212.023 165.277 212.023 163.772C212.023 162.267 210.803 161.047 209.298 161.047H209.239ZM218.896 162.409C218.143 162.409 217.533 163.019 217.533 163.772C217.533 164.525 218.143 165.135 218.896 165.135H253.357C254.11 165.135 254.72 164.525 254.72 163.772C254.72 163.019 254.11 162.409 253.357 162.409H218.896ZM260.228 163.772C260.228 163.019 260.839 162.409 261.591 162.409H278.148C278.9 162.409 279.51 163.019 279.51 163.772C279.51 164.525 278.9 165.135 278.148 165.135H261.591C260.839 165.135 260.228 164.525 260.228 163.772ZM285.005 162.409C284.252 162.409 283.642 163.019 283.642 163.772C283.642 164.525 284.252 165.135 285.005 165.135H301.562C302.314 165.135 302.924 164.525 302.924 163.772C302.924 163.019 302.314 162.409 301.562 162.409H285.005ZM308.433 163.772C308.433 163.019 309.043 162.409 309.796 162.409H326.353C327.105 162.409 327.715 163.019 327.715 163.772C327.715 164.525 327.105 165.135 326.353 165.135H309.796C309.043 165.135 308.433 164.525 308.433 163.772ZM209.239 185.575C207.734 185.575 206.514 186.795 206.514 188.3C206.514 189.805 207.734 191.025 209.239 191.025H209.298C210.803 191.025 212.023 189.805 212.023 188.3C212.023 186.795 210.803 185.575 209.298 185.575H209.239ZM218.896 186.937C218.143 186.937 217.533 187.547 217.533 188.3C217.533 189.052 218.143 189.662 218.896 189.662H253.357C254.11 189.662 254.72 189.052 254.72 188.3C254.72 187.547 254.11 186.937 253.357 186.937H218.896ZM260.228 188.3C260.228 187.547 260.838 186.937 261.591 186.937H278.148C278.9 186.937 279.51 187.547 279.51 188.3C279.51 189.052 278.9 189.662 278.148 189.662H261.591C260.838 189.662 260.228 189.052 260.228 188.3ZM285.005 186.937C284.252 186.937 283.642 187.547 283.642 188.3C283.642 189.052 284.252 189.662 285.005 189.662H301.562C302.314 189.662 302.924 189.052 302.924 188.3C302.924 187.547 302.314 186.937 301.562 186.937H285.005ZM308.433 188.3C308.433 187.547 309.043 186.937 309.796 186.937H326.353C327.105 186.937 327.715 187.547 327.715 188.3C327.715 189.052 327.105 189.662 326.353 189.662H309.796C309.043 189.662 308.433 189.052 308.433 188.3ZM206.514 212.828C206.514 211.323 207.734 210.103 209.239 210.103H209.298C210.803 210.103 212.023 211.323 212.023 212.828C212.023 214.333 210.803 215.553 209.298 215.553H209.239C207.734 215.553 206.514 214.333 206.514 212.828ZM217.533 212.828C217.533 212.076 218.143 211.465 218.896 211.465H253.357C254.11 211.465 254.72 212.076 254.72 212.828C254.72 213.581 254.11 214.191 253.357 214.191H218.896C218.143 214.191 217.533 213.581 217.533 212.828ZM261.591 211.465C260.838 211.465 260.228 212.076 260.228 212.828C260.228 213.581 260.838 214.191 261.591 214.191H278.148C278.9 214.191 279.51 213.581 279.51 212.828C279.51 212.076 278.9 211.465 278.148 211.465H261.591ZM283.642 212.828C283.642 212.076 284.252 211.465 285.005 211.465H301.562C302.314 211.465 302.924 212.076 302.924 212.828C302.924 213.581 302.314 214.191 301.562 214.191H285.005C284.252 214.191 283.642 213.581 283.642 212.828ZM309.796 211.465C309.043 211.465 308.433 212.076 308.433 212.828C308.433 213.581 309.043 214.191 309.796 214.191H326.353C327.105 214.191 327.715 213.581 327.715 212.828C327.715 212.076 327.105 211.465 326.353 211.465H309.796ZM209.239 234.631C207.734 234.631 206.514 235.851 206.514 237.356C206.514 238.861 207.734 240.081 209.239 240.081H209.298C210.803 240.081 212.023 238.861 212.023 237.356C212.023 235.851 210.803 234.631 209.298 234.631H209.239ZM218.896 235.993C218.143 235.993 217.533 236.603 217.533 237.356C217.533 238.108 218.143 238.719 218.896 238.719H253.357C254.11 238.719 254.72 238.108 254.72 237.356C254.72 236.603 254.11 235.993 253.357 235.993H218.896ZM260.228 237.356C260.228 236.603 260.838 235.993 261.591 235.993H278.148C278.9 235.993 279.51 236.603 279.51 237.356C279.51 238.108 278.9 238.719 278.148 238.719H261.591C260.838 238.719 260.228 238.108 260.228 237.356ZM285.005 235.993C284.252 235.993 283.642 236.603 283.642 237.356C283.642 238.108 284.252 238.719 285.005 238.719H301.562C302.314 238.719 302.924 238.108 302.924 237.356C302.924 236.603 302.314 235.993 301.562 235.993H285.005ZM308.433 237.356C308.433 236.603 309.043 235.993 309.796 235.993H326.353C327.105 235.993 327.715 236.603 327.715 237.356C327.715 238.108 327.105 238.719 326.353 238.719H309.796C309.043 238.719 308.433 238.108 308.433 237.356ZM206.514 171.948C206.514 170.443 207.734 169.223 209.239 169.223H209.298C210.803 169.223 212.023 170.443 212.023 171.948C212.023 173.453 210.803 174.673 209.298 174.673H209.239C207.734 174.673 206.514 173.453 206.514 171.948ZM217.533 171.948C217.533 171.196 218.143 170.585 218.896 170.585H247.848C248.601 170.585 249.211 171.196 249.211 171.948C249.211 172.701 248.601 173.311 247.848 173.311H218.896C218.143 173.311 217.533 172.701 217.533 171.948ZM265.723 170.585C264.97 170.585 264.36 171.196 264.36 171.948C264.36 172.701 264.97 173.311 265.723 173.311H278.148C278.9 173.311 279.51 172.701 279.51 171.948C279.51 171.196 278.9 170.585 278.148 170.585H265.723ZM289.151 171.948C289.151 171.196 289.761 170.585 290.514 170.585H301.562C302.314 170.585 302.924 171.196 302.924 171.948C302.924 172.701 302.314 173.311 301.562 173.311H290.514C289.761 173.311 289.151 172.701 289.151 171.948ZM318.059 170.585C317.307 170.585 316.697 171.196 316.697 171.948C316.697 172.701 317.307 173.311 318.059 173.311H326.353C327.105 173.311 327.715 172.701 327.715 171.948C327.715 171.196 327.105 170.585 326.353 170.585H318.059ZM209.239 193.751C207.734 193.751 206.514 194.971 206.514 196.476C206.514 197.981 207.734 199.201 209.239 199.201H209.298C210.803 199.201 212.023 197.981 212.023 196.476C212.023 194.971 210.803 193.751 209.298 193.751H209.239ZM218.896 195.113C218.143 195.113 217.533 195.724 217.533 196.476C217.533 197.229 218.143 197.839 218.896 197.839H247.848C248.601 197.839 249.211 197.229 249.211 196.476C249.211 195.724 248.601 195.113 247.848 195.113H218.896ZM264.36 196.476C264.36 195.724 264.97 195.113 265.723 195.113H278.147C278.9 195.113 279.51 195.724 279.51 196.476C279.51 197.229 278.9 197.839 278.147 197.839H265.723C264.97 197.839 264.36 197.229 264.36 196.476ZM290.514 195.113C289.761 195.113 289.151 195.724 289.151 196.476C289.151 197.229 289.761 197.839 290.514 197.839H301.561C302.314 197.839 302.924 197.229 302.924 196.476C302.924 195.724 302.314 195.113 301.561 195.113H290.514ZM316.697 196.476C316.697 195.724 317.307 195.113 318.06 195.113H326.352C327.105 195.113 327.715 195.724 327.715 196.476C327.715 197.229 327.105 197.839 326.352 197.839H318.06C317.307 197.839 316.697 197.229 316.697 196.476ZM206.514 221.004C206.514 219.499 207.734 218.279 209.239 218.279H209.298C210.803 218.279 212.023 219.499 212.023 221.004C212.023 222.509 210.803 223.729 209.298 223.729H209.239C207.734 223.729 206.514 222.509 206.514 221.004ZM217.533 221.004C217.533 220.251 218.143 219.641 218.896 219.641H247.848C248.601 219.641 249.211 220.251 249.211 221.004C249.211 221.756 248.601 222.366 247.848 222.366H218.896C218.143 222.366 217.533 221.756 217.533 221.004ZM265.723 219.641C264.97 219.641 264.36 220.251 264.36 221.004C264.36 221.756 264.97 222.366 265.723 222.366H278.147C278.9 222.366 279.51 221.756 279.51 221.004C279.51 220.251 278.9 219.641 278.147 219.641H265.723ZM289.151 221.004C289.151 220.251 289.761 219.641 290.514 219.641H301.561C302.314 219.641 302.924 220.251 302.924 221.004C302.924 221.756 302.314 222.366 301.561 222.366H290.514C289.761 222.366 289.151 221.756 289.151 221.004ZM318.06 219.641C317.307 219.641 316.697 220.251 316.697 221.004C316.697 221.756 317.307 222.366 318.06 222.366H326.352C327.105 222.366 327.715 221.756 327.715 221.004C327.715 220.251 327.105 219.641 326.352 219.641H318.06ZM209.239 242.807C207.734 242.807 206.514 244.027 206.514 245.532C206.514 247.037 207.734 248.257 209.239 248.257H209.298C210.803 248.257 212.023 247.037 212.023 245.532C212.023 244.027 210.803 242.807 209.298 242.807H209.239ZM218.896 244.169C218.143 244.169 217.533 244.779 217.533 245.532C217.533 246.285 218.143 246.895 218.896 246.895H247.848C248.601 246.895 249.211 246.285 249.211 245.532C249.211 244.779 248.601 244.169 247.848 244.169H218.896ZM264.36 245.532C264.36 244.779 264.97 244.169 265.723 244.169H278.147C278.9 244.169 279.51 244.779 279.51 245.532C279.51 246.285 278.9 246.895 278.147 246.895H265.723C264.97 246.895 264.36 246.285 264.36 245.532ZM290.514 244.169C289.761 244.169 289.151 244.779 289.151 245.532C289.151 246.285 289.761 246.895 290.514 246.895H301.561C302.314 246.895 302.924 246.285 302.924 245.532C302.924 244.779 302.314 244.169 301.561 244.169H290.514ZM316.697 245.532C316.697 244.779 317.307 244.169 318.06 244.169H326.352C327.105 244.169 327.715 244.779 327.715 245.532C327.715 246.285 327.105 246.895 326.352 246.895H318.06C317.307 246.895 316.697 246.285 316.697 245.532ZM206.514 180.124C206.514 178.619 207.734 177.399 209.239 177.399H209.298C210.803 177.399 212.023 178.619 212.023 180.124C212.023 181.629 210.803 182.849 209.298 182.849H209.239C207.734 182.849 206.514 181.629 206.514 180.124ZM217.533 180.124C217.533 179.371 218.143 178.761 218.896 178.761H243.716C244.469 178.761 245.079 179.371 245.079 180.124C245.079 180.877 244.469 181.487 243.716 181.487H218.896C218.143 181.487 217.533 180.877 217.533 180.124ZM264.346 178.761C263.593 178.761 262.983 179.371 262.983 180.124C262.983 180.877 263.593 181.487 264.346 181.487H278.148C278.9 181.487 279.51 180.877 279.51 180.124C279.51 179.371 278.9 178.761 278.148 178.761H264.346ZM291.906 180.124C291.906 179.371 292.516 178.761 293.269 178.761H301.562C302.314 178.761 302.924 179.371 302.924 180.124C302.924 180.877 302.314 181.487 301.562 181.487H293.269C292.516 181.487 291.906 180.877 291.906 180.124ZM313.927 178.761C313.175 178.761 312.565 179.371 312.565 180.124C312.565 180.877 313.175 181.487 313.927 181.487H326.352C327.105 181.487 327.715 180.877 327.715 180.124C327.715 179.371 327.105 178.761 326.352 178.761H313.927ZM209.239 201.926C207.734 201.926 206.514 203.147 206.514 204.652C206.514 206.157 207.734 207.377 209.239 207.377H209.298C210.803 207.377 212.023 206.157 212.023 204.652C212.023 203.147 210.803 201.926 209.298 201.926H209.239ZM218.896 203.289C218.143 203.289 217.533 203.899 217.533 204.652C217.533 205.404 218.143 206.014 218.896 206.014H243.716C244.469 206.014 245.079 205.404 245.079 204.652C245.079 203.899 244.469 203.289 243.716 203.289H218.896ZM262.983 204.652C262.983 203.899 263.593 203.289 264.346 203.289H278.148C278.9 203.289 279.51 203.899 279.51 204.652C279.51 205.404 278.9 206.014 278.148 206.014H264.346C263.593 206.014 262.983 205.404 262.983 204.652ZM293.269 203.289C292.516 203.289 291.906 203.899 291.906 204.652C291.906 205.404 292.516 206.014 293.269 206.014H301.562C302.314 206.014 302.924 205.404 302.924 204.652C302.924 203.899 302.314 203.289 301.562 203.289H293.269ZM312.565 204.652C312.565 203.899 313.175 203.289 313.927 203.289H326.352C327.105 203.289 327.715 203.899 327.715 204.652C327.715 205.404 327.105 206.014 326.352 206.014H313.927C313.175 206.014 312.565 205.404 312.565 204.652ZM206.514 229.18C206.514 227.675 207.734 226.455 209.239 226.455H209.298C210.803 226.455 212.023 227.675 212.023 229.18C212.023 230.685 210.803 231.905 209.298 231.905H209.239C207.734 231.905 206.514 230.685 206.514 229.18ZM217.533 229.18C217.533 228.427 218.143 227.817 218.896 227.817H243.716C244.469 227.817 245.079 228.427 245.079 229.18C245.079 229.933 244.469 230.543 243.716 230.543H218.896C218.143 230.543 217.533 229.933 217.533 229.18ZM264.346 227.817C263.593 227.817 262.983 228.427 262.983 229.18C262.983 229.933 263.593 230.543 264.346 230.543H278.148C278.9 230.543 279.51 229.933 279.51 229.18C279.51 228.427 278.9 227.817 278.148 227.817H264.346ZM291.906 229.18C291.906 228.427 292.516 227.817 293.269 227.817H301.562C302.314 227.817 302.924 228.427 302.924 229.18C302.924 229.933 302.314 230.543 301.562 230.543H293.269C292.516 230.543 291.906 229.933 291.906 229.18ZM313.927 227.817C313.175 227.817 312.565 228.427 312.565 229.18C312.565 229.933 313.175 230.543 313.927 230.543H326.352C327.105 230.543 327.715 229.933 327.715 229.18C327.715 228.427 327.105 227.817 326.352 227.817H313.927ZM209.239 250.982C207.734 250.982 206.514 252.203 206.514 253.708C206.514 255.213 207.734 256.433 209.239 256.433H209.298C210.803 256.433 212.023 255.213 212.023 253.708C212.023 252.203 210.803 250.982 209.298 250.982H209.239ZM218.896 252.345C218.143 252.345 217.533 252.955 217.533 253.708C217.533 254.461 218.143 255.071 218.896 255.071H243.716C244.469 255.071 245.079 254.461 245.079 253.708C245.079 252.955 244.469 252.345 243.716 252.345H218.896ZM262.983 253.708C262.983 252.955 263.593 252.345 264.346 252.345H278.148C278.9 252.345 279.51 252.955 279.51 253.708C279.51 254.461 278.9 255.071 278.148 255.071H264.346C263.593 255.071 262.983 254.461 262.983 253.708ZM293.269 252.345C292.516 252.345 291.906 252.955 291.906 253.708C291.906 254.461 292.516 255.071 293.269 255.071H301.562C302.314 255.071 302.924 254.461 302.924 253.708C302.924 252.955 302.314 252.345 301.562 252.345H293.269ZM312.565 253.708C312.565 252.955 313.175 252.345 313.927 252.345H326.352C327.105 252.345 327.715 252.955 327.715 253.708C327.715 254.461 327.105 255.071 326.352 255.071H313.927C313.175 255.071 312.565 254.461 312.565 253.708Z" fill="#82BAF6"/>
<rect x="172.5" y="0.5" width="656.118" height="587" rx="9.5" stroke="#28445B"/>
<rect x="1" y="138" width="216" height="450" rx="32" fill="#0D1D29"/>
<path d="M1 170.703C1 152.642 15.697 138 33.8267 138H184.173C202.303 138 217 152.642 217 170.703V555.297C217 573.358 202.303 588 184.173 588H33.8267C15.697 588 1 573.358 1 555.297V170.703Z" stroke="#28445B"/>
<path d="M33.1702 145.195C19.3916 145.195 8.22189 156.323 8.22189 170.049V555.297C8.22189 569.023 19.3916 580.151 33.1702 580.151H184.83C198.608 580.151 209.778 569.023 209.778 555.297V170.049C209.778 156.323 198.608 145.195 184.83 145.195H150.69C149.24 145.195 148.064 146.366 148.064 147.811V149.052C148.064 155.952 142.449 161.546 135.522 161.546H81.8216C74.8949 161.546 69.2796 155.952 69.2796 149.052V147.811C69.2796 146.366 68.1038 145.195 66.6535 145.195H33.1702Z" stroke="#28445B"/>
<g opacity="0.2">
<path d="M73.1191 176.146C73.1191 174.801 74.2144 173.71 75.5656 173.71H142.435C143.786 173.71 144.881 174.801 144.881 176.146V181.829C144.881 183.174 143.786 184.265 142.435 184.265H75.5656C74.2144 184.265 73.1191 183.174 73.1191 181.829V176.146Z" fill="#82BAF6"/>
<path d="M167.714 173.71C167.714 172.365 168.81 171.275 170.161 171.275H179.131C180.482 171.275 181.577 172.365 181.577 173.71V182.641C181.577 183.986 180.482 185.076 179.131 185.076H170.161C168.81 185.076 167.714 183.986 167.714 182.641V173.71Z" fill="#82BAF6"/>
<path d="M17.6667 173.71C17.6667 172.365 18.7621 171.275 20.1132 171.275H22.5596C23.9107 171.275 25.006 172.365 25.006 173.71V182.641C25.006 183.986 23.9107 185.076 22.5596 185.076H20.1132C18.7621 185.076 17.6667 183.986 17.6667 182.641V173.71Z" fill="#82BAF6"/>
<path d="M186.47 173.71C186.47 172.365 187.566 171.275 188.917 171.275H197.887C199.238 171.275 200.333 172.365 200.333 173.71V182.641C200.333 183.986 199.238 185.076 197.887 185.076H188.917C187.566 185.076 186.47 183.986 186.47 182.641V173.71Z" fill="#82BAF6"/>
</g>
<g opacity="0.05">
<path d="M29.8989 155.037C29.8989 153.692 30.9942 152.602 32.3454 152.602H47.0239C48.3751 152.602 49.4704 153.692 49.4704 155.037V157.473C49.4704 158.818 48.3751 159.909 47.0239 159.909H32.3454C30.9942 159.909 29.8989 158.818 29.8989 157.473V155.037Z" fill="#82BAF6"/>
<path d="M184.024 155.037C184.024 153.692 185.119 152.602 186.47 152.602H191.363C192.714 152.602 193.81 153.692 193.81 155.037V157.473C193.81 158.818 192.714 159.909 191.363 159.909H186.47C185.119 159.909 184.024 158.818 184.024 157.473V155.037Z" fill="#82BAF6"/>
<path d="M170.161 155.037C170.161 153.692 171.256 152.602 172.607 152.602H175.869C177.22 152.602 178.316 153.692 178.316 155.037V157.473C178.316 158.818 177.22 159.909 175.869 159.909H172.607C171.256 159.909 170.161 158.818 170.161 157.473V155.037Z" fill="#82BAF6"/>
</g>
<rect opacity="0.4" x="18.1667" y="192.925" width="181.667" height="36.8319" rx="2.5" stroke="#82BAF6"/>
<path d="M46.5002 211.009C46.5002 215.862 42.5474 219.801 37.6668 219.801C32.7862 219.801 28.8335 215.862 28.8335 211.009C28.8335 206.155 32.7862 202.217 37.6668 202.217C42.5474 202.217 46.5002 206.155 46.5002 211.009Z" stroke="#82BAF6"/>
<g clip-path="url(#clip3_1547_8443)">
<path fill-rule="evenodd" clip-rule="evenodd" d="M40.8256 211.339C41.4596 211.18 41.8568 210.781 42.0247 210.146C42.2419 209.324 42.02 208.681 41.3354 208.181C40.9756 207.918 40.5718 207.74 40.1547 207.592C40.0751 207.564 40.0571 207.53 40.0764 207.455C40.1484 207.178 40.2188 206.9 40.2887 206.622C40.3295 206.459 40.3697 206.297 40.4108 206.13C40.4295 206.055 40.4483 205.978 40.4676 205.901L39.4633 205.652L39.0586 207.261L38.244 207.069L38.6483 205.449L37.6497 205.201C37.6447 205.216 37.6398 205.23 37.6353 205.242C37.6266 205.267 37.6193 205.287 37.614 205.308C37.5883 205.41 37.5626 205.512 37.5369 205.615C37.442 205.991 37.347 206.368 37.2567 206.746C37.2352 206.836 37.2052 206.852 37.1178 206.829C36.8436 206.757 36.5682 206.69 36.2929 206.622C36.2185 206.604 36.1441 206.586 36.0697 206.568C35.8642 206.517 35.6586 206.467 35.4503 206.416C35.3634 206.395 35.276 206.374 35.188 206.352L34.9206 207.419C34.9492 207.426 34.9771 207.432 35.0045 207.439C35.0625 207.452 35.1182 207.465 35.1732 207.48C35.236 207.498 35.2993 207.514 35.3626 207.53C35.5213 207.571 35.6801 207.611 35.8305 207.672C36.0699 207.769 36.1682 208.012 36.1062 208.261C36.0537 208.472 36.0012 208.682 35.9487 208.893C35.8372 209.341 35.7257 209.789 35.6135 210.237C35.5479 210.499 35.4819 210.761 35.4158 211.023C35.2767 211.575 35.1377 212.127 35.0025 212.679C34.9581 212.861 34.7573 213.032 34.5428 212.97C34.3713 212.921 34.1966 212.882 34.02 212.843C33.9428 212.827 33.8652 212.81 33.7874 212.791L33.2917 213.929L35.3285 214.442L34.9109 216.117L35.9098 216.364C35.915 216.345 35.9197 216.328 35.9241 216.312C35.9327 216.281 35.94 216.254 35.9468 216.228C35.9708 216.132 35.9948 216.037 36.0189 215.942C36.1145 215.563 36.2102 215.184 36.3037 214.805C36.3182 214.746 36.3348 214.709 36.4035 214.727C36.5908 214.777 36.7782 214.826 36.9727 214.878C37.0278 214.892 37.0835 214.907 37.1399 214.922L36.7301 216.569L37.7269 216.816C37.7317 216.802 37.7364 216.789 37.7408 216.777C37.7496 216.752 37.7571 216.731 37.7625 216.71C37.7864 216.614 37.8103 216.519 37.8343 216.424C37.9315 216.037 38.0287 215.649 38.1219 215.261C38.1434 215.172 38.1764 215.142 38.269 215.165C38.3355 215.181 38.4038 215.19 38.472 215.2C38.5048 215.204 38.5375 215.209 38.5701 215.214C39.09 215.298 39.6114 215.328 40.1324 215.232C40.6029 215.145 41.0056 214.935 41.3072 214.554C41.6316 214.144 41.7984 213.672 41.8697 213.161C41.9429 212.637 41.8101 212.174 41.4245 211.805C41.3 211.686 41.1593 211.584 41.0178 211.481C40.9534 211.434 40.8888 211.387 40.8256 211.339ZM37.9745 210.402C38.4225 210.508 38.8728 210.589 39.3361 210.515C40.0075 210.408 40.2061 209.819 40.0938 209.39C40.0146 209.087 39.7903 208.899 39.5285 208.751C39.1203 208.519 38.6702 208.415 38.2202 208.311C38.163 208.298 38.1057 208.284 38.0486 208.271C37.9716 208.253 37.9581 208.301 37.9437 208.361C37.9032 208.528 37.8611 208.694 37.819 208.861C37.7961 208.952 37.7732 209.042 37.7506 209.133C37.686 209.392 37.6218 209.65 37.5565 209.913L37.467 210.273C37.525 210.288 37.5812 210.302 37.6361 210.317C37.7524 210.347 37.8631 210.376 37.9745 210.402ZM37.0314 212.006C36.912 212.481 36.7925 212.956 36.6719 213.43C36.6537 213.502 36.6847 213.515 36.7459 213.528C36.8867 213.558 37.0271 213.591 37.1675 213.624C37.4311 213.686 37.6947 213.748 37.9612 213.794C38.3264 213.856 38.6978 213.865 39.0655 213.78C39.789 213.613 39.9982 212.81 39.6393 212.324C39.471 212.097 39.2428 211.942 38.9921 211.819C38.4949 211.574 37.9602 211.452 37.4269 211.33C37.3599 211.315 37.293 211.3 37.2261 211.284C37.223 211.288 37.22 211.291 37.2174 211.294C37.2124 211.299 37.2086 211.303 37.2074 211.308C37.1487 211.54 37.0902 211.773 37.0317 212.005L37.0314 212.006Z" fill="#82BAF6"/>
</g>
<path d="M74.2736 210.857C74.2736 215.71 70.3209 219.649 65.4403 219.649C60.5597 219.649 56.6069 215.71 56.6069 210.857C56.6069 206.003 60.5597 202.065 65.4403 202.065C70.3209 202.065 74.2736 206.003 74.2736 210.857Z" stroke="#82BAF6"/>
<g clip-path="url(#clip4_1547_8443)">
<path d="M64.9706 216.664H66.0461L66.0553 215.616C68.0286 215.466 69.1724 214.423 69.177 212.848C69.1724 211.301 68.0012 210.48 66.3788 210.117L66.1099 210.054L66.1282 207.785C66.7343 207.926 67.1034 208.311 67.1581 208.883H69.0494C69.0266 207.381 67.901 206.306 66.1464 206.115L66.1555 205.049H65.08L65.0709 206.106C63.289 206.279 62.0312 207.349 62.0403 208.897C62.0357 210.267 63.0064 211.052 64.5833 211.428L65.0208 211.537L64.998 213.937C64.2551 213.797 63.7538 213.343 63.7037 212.585H61.7942C61.8398 214.418 63.0474 215.444 64.9797 215.611L64.9706 216.664ZM66.0735 213.937L66.0917 211.818C66.7981 212.041 67.1809 212.327 67.1855 212.844C67.1809 213.393 66.7616 213.801 66.0735 213.937ZM65.0344 209.777C64.4648 209.582 64.0546 209.287 64.0637 208.765C64.0637 208.279 64.4101 207.903 65.0527 207.771L65.0344 209.777Z" fill="#82BAF6"/>
</g>
<path opacity="0.18" fill-rule="evenodd" clip-rule="evenodd" d="M131.679 201.574C131.679 200.469 132.574 199.574 133.679 199.574H191.33C192.434 199.574 193.33 200.469 193.33 201.574V206.342C193.33 207.447 192.434 208.342 191.33 208.342H133.679C132.574 208.342 131.679 207.447 131.679 206.342V201.574ZM149.294 214.187C149.294 213.38 149.948 212.726 150.755 212.726H191.868C192.676 212.726 193.33 213.38 193.33 214.187C193.33 214.994 192.676 215.649 191.868 215.649H150.755C149.948 215.649 149.294 214.994 149.294 214.187ZM168.369 220.033C167.562 220.033 166.908 220.687 166.908 221.494C166.908 222.302 167.562 222.956 168.369 222.956H191.868C192.675 222.956 193.329 222.302 193.329 221.494C193.329 220.687 192.675 220.033 191.868 220.033H168.369Z" fill="#82BAF6"/>
<rect opacity="0.4" x="18.1667" y="237.394" width="181.667" height="43.469" rx="2.5" stroke="#82BAF6"/>
<path opacity="0.18" fill-rule="evenodd" clip-rule="evenodd" d="M26.8102 244.197C25.3108 244.197 24.0952 245.413 24.0952 246.912C24.0952 248.411 25.3108 249.627 26.8102 249.627H29.0965C30.5959 249.627 31.8115 248.411 31.8115 246.912C31.8115 245.413 30.5959 244.197 29.0965 244.197H26.8102ZM40.8867 245.554C40.1369 245.554 39.5291 246.162 39.5291 246.912C39.5291 247.662 40.1369 248.269 40.8867 248.269H90.2566C91.0063 248.269 91.6141 247.662 91.6141 246.912C91.6141 246.162 91.0063 245.554 90.2566 245.554H40.8867ZM99.3298 246.912C99.3298 246.162 99.9376 245.554 100.687 245.554H124.979C125.729 245.554 126.337 246.162 126.337 246.912C126.337 247.662 125.729 248.269 124.979 248.269H100.687C99.9376 248.269 99.3298 247.662 99.3298 246.912ZM133.482 245.554C132.732 245.554 132.124 246.162 132.124 246.912C132.124 247.662 132.732 248.269 133.482 248.269H157.774C158.524 248.269 159.131 247.662 159.131 246.912C159.131 246.162 158.524 245.554 157.774 245.554H133.482ZM166.848 246.912C166.848 246.162 167.455 245.554 168.205 245.554H192.497C193.247 245.554 193.855 246.162 193.855 246.912C193.855 247.662 193.247 248.269 192.497 248.269H168.205C167.455 248.269 166.848 247.662 166.848 246.912ZM26.8102 268.632C25.3108 268.632 24.0952 269.848 24.0952 271.347C24.0952 272.846 25.3108 274.062 26.8102 274.062H29.0965C30.5959 274.062 31.8115 272.846 31.8115 271.347C31.8115 269.848 30.5959 268.632 29.0965 268.632H26.8102ZM40.8866 269.989C40.1369 269.989 39.5291 270.597 39.5291 271.347C39.5291 272.096 40.1369 272.704 40.8866 272.704H90.2567C91.0064 272.704 91.6141 272.096 91.6141 271.347C91.6141 270.597 91.0064 269.989 90.2567 269.989H40.8866ZM99.3296 271.347C99.3296 270.597 99.9373 269.989 100.687 269.989H124.979C125.729 269.989 126.337 270.597 126.337 271.347C126.337 272.096 125.729 272.704 124.979 272.704H100.687C99.9373 272.704 99.3296 272.096 99.3296 271.347ZM133.482 269.989C132.732 269.989 132.124 270.597 132.124 271.347C132.124 272.096 132.732 272.704 133.482 272.704H157.774C158.523 272.704 159.131 272.096 159.131 271.347C159.131 270.597 158.523 269.989 157.774 269.989H133.482ZM166.848 271.347C166.848 270.597 167.455 269.989 168.205 269.989H192.497C193.247 269.989 193.855 270.597 193.855 271.347C193.855 272.096 193.247 272.704 192.497 272.704H168.205C167.455 272.704 166.848 272.096 166.848 271.347ZM24.0952 255.057C24.0952 253.558 25.3108 252.342 26.8103 252.342H29.0964C30.5959 252.342 31.8115 253.558 31.8115 255.057C31.8115 256.556 30.5959 257.772 29.0964 257.772H26.8103C25.3108 257.772 24.0952 256.556 24.0952 255.057ZM39.5291 255.057C39.5291 254.307 40.1369 253.7 40.8866 253.7H82.5404C83.2901 253.7 83.8979 254.307 83.8979 255.057C83.8979 255.807 83.2901 256.414 82.5404 256.414H40.8866C40.1369 256.414 39.5291 255.807 39.5291 255.057ZM106.474 253.7C105.724 253.7 105.117 254.307 105.117 255.057C105.117 255.807 105.724 256.414 106.474 256.414H124.979C125.729 256.414 126.336 255.807 126.336 255.057C126.336 254.307 125.729 253.7 124.979 253.7H106.474ZM139.84 255.057C139.84 254.307 140.448 253.7 141.198 253.7H157.774C158.523 253.7 159.131 254.307 159.131 255.057C159.131 255.807 158.523 256.414 157.774 256.414H141.198C140.448 256.414 139.84 255.807 139.84 255.057ZM179.779 253.7C179.029 253.7 178.422 254.307 178.422 255.057C178.422 255.807 179.029 256.414 179.779 256.414H192.497C193.247 256.414 193.854 255.807 193.854 255.057C193.854 254.307 193.247 253.7 192.497 253.7H179.779ZM26.8102 260.487C25.3108 260.487 24.0952 261.702 24.0952 263.202C24.0952 264.701 25.3108 265.917 26.8102 265.917H29.0965C30.5959 265.917 31.8115 264.701 31.8115 263.202C31.8115 261.702 30.5959 260.487 29.0965 260.487H26.8102ZM40.8866 261.844C40.1369 261.844 39.5291 262.452 39.5291 263.202C39.5291 263.952 40.1369 264.559 40.8866 264.559H76.7531C77.5028 264.559 78.1106 263.952 78.1106 263.202C78.1106 262.452 77.5028 261.844 76.7531 261.844H40.8866ZM103.188 263.202C103.188 262.452 103.795 261.844 104.545 261.844H124.979C125.729 261.844 126.337 262.452 126.337 263.202C126.337 263.952 125.729 264.559 124.979 264.559H104.545C103.795 264.559 103.188 263.952 103.188 263.202ZM145.056 261.844C144.306 261.844 143.698 262.452 143.698 263.202C143.698 263.952 144.306 264.559 145.056 264.559H157.774C158.523 264.559 159.131 263.952 159.131 263.202C159.131 262.452 158.523 261.844 157.774 261.844H145.056ZM172.634 263.202C172.634 262.452 173.242 261.844 173.992 261.844H192.496C193.246 261.844 193.854 262.452 193.854 263.202C193.854 263.952 193.246 264.559 192.496 264.559H173.992C173.242 264.559 172.634 263.952 172.634 263.202Z" fill="#82BAF6"/>
<g clip-path="url(#clip5_1547_8443)">
<rect opacity="0.4" x="18.1667" y="288.98" width="181.667" height="202.779" rx="2.5" stroke="#82BAF6"/>
<path opacity="0.9" d="M36.7765 466.294L21.0391 474.798H17.6667V492.259H200.333V320.667L200.165 320.522C197.147 317.928 192.487 318.936 190.811 322.545L176.722 352.892C175.451 355.63 171.721 356.027 169.902 353.619L162.676 344.052L158.742 331.58L150.856 334.485L148.184 331.369C146.156 329.003 142.322 329.762 141.348 332.722L109.281 430.153H86.237L61.5067 457.79H53.638L48.0175 466.294H36.7765Z" fill="url(#paint1_linear_1547_8443)"/>
<g filter="url(#filter1_d_1547_8443)">
<path d="M206.536 328.445L198.868 319.839C196.954 317.691 193.465 318.206 192.253 320.816L177.389 352.833C176.118 355.571 172.388 355.968 170.569 353.56L163.758 344.543C163.483 344.179 163.273 343.771 163.135 343.336L160.658 335.482C159.975 333.319 157.633 332.155 155.497 332.918L153.768 333.536C152.257 334.076 150.569 333.661 149.482 332.481L148.082 330.964C146.005 328.712 142.271 329.535 141.334 332.452L110.84 427.318C110.308 428.972 108.77 430.094 107.032 430.094H88.6921C87.5541 430.094 86.4701 430.579 85.7112 431.427L63.366 456.399C62.6072 457.247 61.5231 457.731 60.3852 457.731H56.4557C55.1127 457.731 53.8593 458.405 53.1188 459.526L49.8703 464.441C49.1297 465.561 47.8763 466.235 46.5333 466.235H38.4548C37.7909 466.235 37.1374 466.4 36.5533 466.716L22.5958 474.258C22.0117 474.574 21.3582 474.739 20.6942 474.739H18.3335" stroke="#82BAF6" stroke-width="2"/>
</g>
</g>
<path opacity="0.08" d="M17.6667 502.298C17.6667 500.504 19.1272 499.05 20.9287 499.05H197.072C198.873 499.05 200.333 500.504 200.333 502.298V532.194C200.333 533.988 198.873 535.442 197.072 535.442H20.9287C19.1272 535.442 17.6667 533.988 17.6667 532.194V502.298Z" fill="#82BAF6"/>
<g opacity="0.04">
<path d="M17.6667 544.195C17.6667 543.095 18.5622 542.204 19.6667 542.204H132.333C133.438 542.204 134.333 543.095 134.333 544.195V560.124C134.333 561.224 133.438 562.115 132.333 562.115H19.6667C18.5622 562.115 17.6667 561.224 17.6667 560.124V544.195Z" fill="#82BAF6"/>
<path d="M141.667 544.195C141.667 543.095 142.562 542.204 143.667 542.204H198.333C199.438 542.204 200.333 543.095 200.333 544.195V560.124C200.333 561.224 199.438 562.115 198.333 562.115H143.667C142.562 562.115 141.667 561.224 141.667 560.124V544.195Z" fill="#82BAF6"/>
</g>
<defs>
<filter id="filter0_d_1547_8443" x="338.916" y="124.44" width="488.15" height="215.261" filterUnits="userSpaceOnUse" color-interpolation-filters="sRGB">
<feFlood flood-opacity="0" result="BackgroundImageFix"/>
<feColorMatrix in="SourceAlpha" type="matrix" values="0 0 0 0 0 0 0 0 0 0 0 0 0 0 0 0 0 0 127 0" result="hardAlpha"/>
<feOffset/>
<feGaussianBlur stdDeviation="5"/>
<feColorMatrix type="matrix" values="0 0 0 0 1 0 0 0 0 1 0 0 0 0 1 0 0 0 0.7 0"/>
<feBlend mode="normal" in2="BackgroundImageFix" result="effect1_dropShadow_1547_8443"/>
<feBlend mode="normal" in="SourceGraphic" in2="effect1_dropShadow_1547_8443" result="shape"/>
</filter>
<filter id="filter1_d_1547_8443" x="8.3335" y="307.5" width="208.949" height="178.239" filterUnits="userSpaceOnUse" color-interpolation-filters="sRGB">
<feFlood flood-opacity="0" result="BackgroundImageFix"/>
<feColorMatrix in="SourceAlpha" type="matrix" values="0 0 0 0 0 0 0 0 0 0 0 0 0 0 0 0 0 0 127 0" result="hardAlpha"/>
<feOffset/>
<feGaussianBlur stdDeviation="5"/>
<feColorMatrix type="matrix" values="0 0 0 0 1 0 0 0 0 1 0 0 0 0 1 0 0 0 0.7 0"/>
<feBlend mode="normal" in2="BackgroundImageFix" result="effect1_dropShadow_1547_8443"/>
<feBlend mode="normal" in="SourceGraphic" in2="effect1_dropShadow_1547_8443" result="shape"/>
</filter>
<linearGradient id="paint0_linear_1547_8443" x1="575.03" y1="230.776" x2="575.03" y2="356.664" gradientUnits="userSpaceOnUse">
<stop stop-color="#82BAF6" stop-opacity="0.4"/>
<stop offset="1" stop-color="#82BAF6" stop-opacity="0"/>
</linearGradient>
<linearGradient id="paint1_linear_1547_8443" x1="109" y1="315.352" x2="109" y2="492.259" gradientUnits="userSpaceOnUse">
<stop stop-color="#82BAF6" stop-opacity="0.4"/>
<stop offset="1" stop-color="#82BAF6" stop-opacity="0"/>
</linearGradient>
<clipPath id="clip0_1547_8443">
<rect width="453.913" height="248.267" fill="white" transform="translate(348.916 101.779)"/>
</clipPath>
<clipPath id="clip1_1547_8443">
<rect width="13.1951" height="13.0666" fill="white" transform="translate(210.266 113.571)"/>
</clipPath>
<clipPath id="clip2_1547_8443">
<rect width="13.1951" height="13.0666" fill="white" transform="translate(239.131 113.571)"/>
</clipPath>
<clipPath id="clip3_1547_8443">
<rect width="11.6667" height="11.615" fill="white" transform="translate(31.8335 205.201)"/>
</clipPath>
<clipPath id="clip4_1547_8443">
<rect width="11.6667" height="11.615" fill="white" transform="translate(59.6067 205.049)"/>
</clipPath>
<clipPath id="clip5_1547_8443">
<rect width="182.667" height="203.779" fill="white" transform="translate(17.6667 288.48)"/>
</clipPath>
</defs>
</svg>
