<svg width="15" height="21" viewBox="0 0 15 21" fill="none" xmlns="http://www.w3.org/2000/svg">
<path d="M0.062737 12.4165V12.2116C0.0932884 11.5554 0.274112 10.9196 0.587264 10.3674C1.10943 9.69734 1.4684 8.88341 1.62849 8.00652C1.66763 7.33834 1.62849 6.65234 1.66763 5.97525C1.94947 2.72343 4.76 0.478333 7.45309 0.478333H7.53138C10.2714 0.478333 13.0115 2.72343 13.309 5.97525C13.3638 6.64343 13.309 7.33834 13.356 8.00652C13.5122 8.88494 13.8716 9.69998 14.3972 10.3674C14.724 10.9133 14.911 11.5518 14.9374 12.2116V12.4165C14.9422 13.3054 14.6641 14.1662 14.1545 14.8398C13.5008 15.6385 12.6121 16.1362 11.6571 16.2385C8.86863 16.6483 6.04538 16.6483 3.25687 16.2385C2.31306 16.1278 1.4367 15.6308 0.790812 14.8398C0.29719 14.1597 0.0383412 13.2982 0.062737 12.4165Z" fill="#ffffff"/>
<path opacity="1" d="M8.51782 17.6105C7.96198 17.566 7.50791 17.6105 7.05385 17.6105C6.60353 17.6016 6.15395 17.6554 5.71513 17.7709C5.33935 17.8689 4.93225 18.1005 4.93225 18.5905C4.97168 19.0641 5.19583 19.4925 5.54289 19.7576C6.21144 20.3424 7.05393 20.6076 7.89152 20.497C8.7057 20.4283 9.44986 19.9476 9.91917 19.1874C10.1786 18.8023 10.1194 18.2517 9.78608 17.949V17.949V17.949C9.3914 17.7281 8.95768 17.6123 8.51782 17.6105Z" fill="#ffffff"/>
</svg>
