<svg width="75" height="75" viewBox="0 0 75 75" fill="none" xmlns="http://www.w3.org/2000/svg">
<circle cx="37.5" cy="37.5" r="37.5" fill="#0E3452"/>
<path opacity="0.03" fill-rule="evenodd" clip-rule="evenodd" d="M37.5 70.7143C55.8437 70.7143 70.7143 55.8437 70.7143 37.5C70.7143 19.1563 55.8437 4.28571 37.5 4.28571C19.1563 4.28571 4.28571 19.1563 4.28571 37.5C4.28571 55.8437 19.1563 70.7143 37.5 70.7143ZM37.5 75C58.2107 75 75 58.2107 75 37.5C75 16.7893 58.2107 0 37.5 0C16.7893 0 0 16.7893 0 37.5C0 58.2107 16.7893 75 37.5 75Z" fill="#03CA9B"/>
<path opacity="0.3" fill-rule="evenodd" clip-rule="evenodd" d="M71.7858 37.5001C71.7858 56.4355 56.4355 71.7858 37.5001 71.7858C18.5646 71.7858 3.21436 56.4355 3.21436 37.5001C3.21436 18.5646 18.5646 3.21436 37.5001 3.21436C56.4355 3.21436 71.7858 18.5646 71.7858 37.5001ZM37.5001 70.7144C55.8438 70.7144 70.7144 55.8438 70.7144 37.5001C70.7144 19.1563 55.8438 4.28578 37.5001 4.28578C19.1563 4.28578 4.28578 19.1563 4.28578 37.5001C4.28578 55.8438 19.1563 70.7144 37.5001 70.7144Z" fill="#0B1923"/>
<g clip-path="url(#clip0_3001_9239)">
<path d="M37.656 17.1428C29.1519 17.177 22.2663 24.0626 22.2322 32.5666C22.2322 34.2697 22.5071 35.9614 23.0455 37.5767C23.4473 38.6763 24.6396 39.2684 25.7587 38.9284C26.8405 38.5136 27.4147 37.3311 27.0698 36.2249C26.6127 34.9659 26.4094 33.6305 26.4696 32.2934C26.655 26.1512 31.7838 21.3217 37.926 21.5071C44.0682 21.6925 48.8977 26.8213 48.7123 32.9635C48.5382 38.7137 44.0096 43.3838 38.266 43.7335C38.266 43.7335 36.1009 43.8653 35.0241 43.997C34.6272 44.054 34.2335 44.132 33.8448 44.2313C33.7895 44.2882 33.7 44.2882 33.6431 44.2329L33.6414 44.2313C33.6024 44.1808 33.6024 44.1093 33.6414 44.0588L33.9765 42.2305L36.0098 33.0855C36.2538 31.9436 35.5267 30.8196 34.3848 30.5756C33.2429 30.3316 32.1189 31.0587 31.8749 32.2006C31.8749 32.2006 27.0389 54.5848 27.0389 54.7882C26.7624 55.8764 27.4195 56.9825 28.5078 57.259C28.5191 57.2623 28.5322 57.2655 28.5435 57.2672H28.6558C29.7424 57.5486 30.8517 56.8947 31.1315 55.8081C31.1364 55.7902 31.1413 55.7723 31.1445 55.7528C31.1413 55.7186 31.1413 55.6845 31.1445 55.6519C31.2047 55.3884 31.8147 52.41 31.8147 52.41C32.2767 50.162 34.0888 48.4394 36.3563 48.0913C36.8231 48.0197 38.7849 47.888 38.7849 47.888C47.2564 47.0437 53.4393 39.4912 52.5934 31.0197C51.8224 23.2932 45.4216 17.3445 37.656 17.1428Z" fill="#03CA9B"/>
<path d="M38.5913 52.7061C37.2005 52.4165 35.8407 53.3096 35.5511 54.6987C35.5479 54.7117 35.5462 54.7247 35.543 54.7377C35.2421 56.1188 36.1172 57.4835 37.4998 57.7844C37.5015 57.7844 37.5031 57.7844 37.5047 57.7861H37.5763C38.9296 58.113 40.2911 57.2802 40.6165 55.9284C40.6197 55.9187 40.6214 55.9073 40.6246 55.8975V55.756C40.8637 54.3604 39.9723 53.0216 38.5913 52.7061Z" fill="#03CA9B"/>
</g>
<defs>
<clipPath id="clip0_3001_9239">
<rect width="40.7143" height="40.7143" fill="white" transform="translate(17.1428 17.1428)"/>
</clipPath>
</defs>
</svg>
