<svg width="146" height="145" viewBox="0 0 146 145" fill="none" xmlns="http://www.w3.org/2000/svg">
<path opacity="0.25" d="M95.8983 30.7085H52.6533C33.8467 30.7085 22.635 41.9202 22.635 60.7268V103.972C22.635 122.778 33.8467 133.99 52.6533 133.99H95.8983C114.705 133.99 125.917 122.778 125.917 103.972V60.7268C125.917 41.9202 114.705 30.7085 95.8983 30.7085Z" fill="#3071EE"/>
<path d="M126.583 72.8678H86.9549C86.9033 72.5061 86.9033 72.0928 86.7999 71.7311C85.7149 67.5978 82.3567 64.2395 78.2234 63.1545C70.7834 61.1911 64.0151 66.0478 62.8784 72.8678H23.25V80.6178H64.1184C65.1517 82.5811 66.5983 84.2345 68.4583 85.3712V95.6012C68.4583 99.1662 71.3517 102.059 74.9167 102.059C78.4817 102.059 81.375 99.1662 81.375 95.6012V85.3712C83.235 84.2345 84.6817 82.5811 85.715 80.6178H126.583V72.8678Z" fill="#3071EE"/>
<circle cx="75.25" cy="74.875" r="13" fill="white"/>
<rect x="68.25" y="77.875" width="14" height="24" rx="7" fill="white"/>
<path d="M34.0001 61.5831C49.303 61.5831 61.7084 49.1776 61.7084 33.8747C61.7084 18.5718 49.303 6.16638 34.0001 6.16638C18.6972 6.16638 6.29175 18.5718 6.29175 33.8747C6.29175 49.1776 18.6972 61.5831 34.0001 61.5831Z" fill="#3071EE"/>
<path d="M23.8035 45.0138C23.277 45.0138 22.7506 44.8199 22.335 44.4042C21.5314 43.6007 21.5314 42.2707 22.335 41.4672L40.4839 23.3182C41.2874 22.5147 42.6174 22.5147 43.421 23.3182C44.2245 24.1218 44.2245 25.4518 43.421 26.2553L25.272 44.4042C24.8564 44.8199 24.33 45.0138 23.8035 45.0138Z" fill="white"/>
<path d="M24.9395 21.8497C22.6951 21.8497 20.8386 23.6785 20.8386 25.9506C20.8386 28.195 22.6674 30.0514 24.9395 30.0514C27.1839 30.0514 29.0403 28.2227 29.0403 25.9506C29.0126 23.6785 27.1839 21.8497 24.9395 21.8497Z" fill="white"/>
<path d="M43.0609 37.7267C40.8165 37.7267 38.9601 39.5554 38.9601 41.8275C38.9601 44.0718 40.7888 45.9283 43.0609 45.9283C45.3052 45.9283 47.1617 44.0995 47.1617 41.8275C47.1617 39.5554 45.3329 37.7267 43.0609 37.7267Z" fill="white"/>
</svg>
