<svg width="124" height="125" viewBox="0 0 124 125" fill="none" xmlns="http://www.w3.org/2000/svg">
<path opacity="0.25" d="M74 56C74 74.7785 58.7785 90 40 90C21.2215 90 6 74.7785 6 56C6 37.2215 21.2215 22 40 22C40.8892 22 41.8307 22.0523 42.7199 22.1046C59.3015 23.4123 72.5877 36.6984 73.8954 53.28C73.9477 54.1692 74 55.1108 74 56Z" fill="#3071EE"/>
<path d="M45.923 55.3664L42.5384 54.1676V46.5634H42.8091C44.5353 46.5634 45.923 48.1048 45.923 49.9887C45.923 51.3931 47.0738 52.5577 48.4615 52.5577C49.8492 52.5577 50.9999 51.3931 50.9999 49.9887C50.9999 45.2618 47.3445 41.4254 42.8091 41.4254H42.5384V40.5691C42.5384 39.1647 41.3876 38.0001 39.9999 38.0001C38.6122 38.0001 37.4615 39.1647 37.4615 40.5691V41.4254H36.4461C32.3507 41.4254 28.9999 44.9192 28.9999 49.2351C28.9999 54.2361 31.8769 55.846 34.0769 56.6338L37.4615 57.8327V65.4368H37.1908C35.4646 65.4368 34.0769 63.8955 34.0769 62.0115C34.0769 60.6072 32.9261 59.4426 31.5384 59.4426C30.1507 59.4426 28.9999 60.6072 28.9999 62.0115C28.9999 66.7385 32.6554 70.5748 37.1908 70.5748H37.4615V71.4311C37.4615 72.8355 38.6122 74.0001 39.9999 74.0001C41.3876 74.0001 42.5384 72.8355 42.5384 71.4311V70.5748H43.5537C47.6491 70.5748 50.9999 67.081 50.9999 62.7651C50.9999 57.7299 48.123 56.12 45.923 55.3664ZM35.7353 51.7356C34.5845 51.3246 34.0769 51.0848 34.0769 49.2009C34.0769 47.728 35.16 46.5291 36.4461 46.5291H37.4615V52.3179L35.7353 51.7356ZM43.5537 65.4026H42.5384V59.6138L44.2646 60.2304C45.4154 60.6414 45.923 60.8812 45.923 62.7651C45.923 64.2037 44.8399 65.4026 43.5537 65.4026Z" fill="white"/>
<path d="M104.496 85.3193L100.954 79.4401C100.21 78.1297 99.5374 75.6505 99.5374 74.1984V65.238C99.5374 53.6922 90.152 44.2714 78.5707 44.2714C66.9895 44.2714 57.604 53.6922 57.604 65.238V74.1984C57.604 75.6505 56.9311 78.1297 56.1874 79.4047L52.6103 85.3193C51.1936 87.6922 50.8749 90.313 51.7603 92.7214C52.6103 95.0943 54.629 96.9359 57.2499 97.8214C64.1207 100.159 71.3457 101.292 78.5707 101.292C85.7957 101.292 93.0207 100.159 99.8915 97.8568C102.371 97.0422 104.283 95.1651 105.204 92.7214C106.125 90.2776 105.877 87.5859 104.496 85.3193Z" fill="#3071EE"/>
<path d="M86.4685 45.7585C84.0247 44.8022 81.3685 44.271 78.5706 44.271C75.8081 44.271 73.1518 44.7668 70.7081 45.7585C72.231 42.8897 75.2414 41.0835 78.5706 41.0835C81.9352 41.0835 84.9102 42.8897 86.4685 45.7585Z" fill="white"/>
<path d="M88.523 104.869C87.0355 108.977 83.1043 111.917 78.5001 111.917C75.7022 111.917 72.9397 110.783 70.9918 108.765C69.8585 107.702 69.0085 106.286 68.5126 104.833C68.9731 104.904 69.4335 104.94 69.9293 105.011C70.7439 105.117 71.5939 105.223 72.4439 105.294C74.4626 105.471 76.5168 105.577 78.571 105.577C80.5897 105.577 82.6085 105.471 84.5918 105.294C85.3355 105.223 86.0793 105.188 86.7876 105.081C87.3543 105.011 87.921 104.94 88.523 104.869Z" fill="white"/>
</svg>
