<svg width="124" height="125" viewBox="0 0 124 125" fill="none" xmlns="http://www.w3.org/2000/svg">
<path opacity="0.4" d="M62.1146 16.1346C53.2321 16.1346 46.0108 23.3345 46.0108 32.1907C46.0108 40.8778 52.8253 47.9087 61.7078 48.2129C61.979 48.1791 62.2502 48.1791 62.4536 48.2129C62.5214 48.2129 62.5553 48.2129 62.6231 48.2129C62.657 48.2129 62.6571 48.2129 62.691 48.2129C71.3701 47.9087 78.1845 40.8778 78.2184 32.1907C78.2184 23.3345 70.9971 16.1346 62.1146 16.1346Z" fill="#3071EE"/>
<path d="M81.109 58.2124C70.5373 51.1929 53.2968 51.1929 42.6493 58.2124C37.8371 61.4202 35.1848 65.7602 35.1848 70.4021C35.1848 75.044 37.8371 79.3463 42.6114 82.5164C47.9162 86.0638 54.8882 87.8376 61.8602 87.8376C68.8322 87.8376 75.8042 86.0638 81.109 82.5164C85.8833 79.3085 88.5357 75.0063 88.5357 70.3266C88.4978 65.6847 85.8833 61.3825 81.109 58.2124Z" fill="#3071EE"/>
<path d="M80.6891 57.1086C73.342 57.1086 67.3912 63.0595 67.3912 70.4065C67.3912 72.8999 68.0894 75.2603 69.3194 77.2549C71.6133 81.1113 75.8354 83.7044 80.6891 83.7044C85.5429 83.7044 89.7649 81.1113 92.0588 77.2549C93.2889 75.2603 93.987 72.8999 93.987 70.4065C93.987 63.0595 88.0362 57.1086 80.6891 57.1086ZM85.6426 72.8333H83.1825V75.4265C83.1825 76.7896 82.0522 77.9199 80.6891 77.9199C79.3261 77.9199 78.1958 76.7896 78.1958 75.4265V72.8333H75.7357C74.3726 72.8333 73.2423 71.703 73.2423 70.34C73.2423 68.977 74.3726 67.8466 75.7357 67.8466H78.1958V65.4864C78.1958 64.1233 79.3261 62.993 80.6891 62.993C82.0522 62.993 83.1825 64.1233 83.1825 65.4864V67.8466H85.6426C87.0056 67.8466 88.136 68.977 88.136 70.34C88.136 71.703 87.0389 72.8333 85.6426 72.8333Z" fill="white"/>
<rect x="16.7805" y="83.2368" width="90.9391" height="36.8087" rx="8.66087" fill="#1D4391"/>
<path d="M44.2105 105.764C44.8633 105.764 45.4238 105.592 45.8918 105.247C46.3722 104.902 46.7541 104.422 47.0374 103.806L49.273 105.099C48.9405 106.011 48.3307 106.762 47.4439 107.353C46.557 107.932 45.4977 108.222 44.2659 108.222C43.0711 108.222 41.981 107.932 40.9956 107.353C40.0101 106.774 39.228 105.955 38.649 104.896C38.0701 103.824 37.7806 102.599 37.7806 101.219C37.7806 99.8394 38.0639 98.62 38.6306 97.5606C39.2095 96.5013 39.9917 95.6822 40.9771 95.1033C41.9748 94.5243 43.0711 94.2349 44.2659 94.2349C45.4977 94.2349 46.557 94.5305 47.4439 95.1217C48.3307 95.7007 48.9405 96.4459 49.273 97.3574L47.0374 98.6508C46.7541 98.0349 46.3722 97.5545 45.8918 97.2096C45.4238 96.8647 44.8633 96.6922 44.2105 96.6922C43.5207 96.6922 42.9048 96.877 42.3628 97.2465C41.8208 97.6161 41.3897 98.1457 41.0695 98.8355C40.7615 99.513 40.6075 100.307 40.6075 101.219C40.6075 102.131 40.7615 102.931 41.0695 103.621C41.3897 104.311 41.8208 104.84 42.3628 105.21C42.9048 105.579 43.5207 105.764 44.2105 105.764ZM50.0141 101.219C50.0141 99.8025 50.2974 98.5645 50.864 97.5052C51.4307 96.4459 52.2005 95.6391 53.1736 95.0848C54.159 94.5182 55.2553 94.2349 56.4624 94.2349C57.6696 94.2349 58.7597 94.5182 59.7328 95.0848C60.7182 95.6391 61.4942 96.4459 62.0608 97.5052C62.6397 98.5645 62.9292 99.8025 62.9292 101.219C62.9292 102.648 62.6397 103.892 62.0608 104.951C61.4942 106.011 60.7182 106.824 59.7328 107.39C58.7597 107.944 57.6696 108.222 56.4624 108.222C55.2553 108.222 54.159 107.944 53.1736 107.39C52.2005 106.824 51.4307 106.011 50.864 104.951C50.2974 103.892 50.0141 102.648 50.0141 101.219ZM52.841 101.219C52.841 102.118 52.9888 102.913 53.2845 103.602C53.5924 104.292 54.0174 104.828 54.5593 105.21C55.1136 105.579 55.748 105.764 56.4624 105.764C57.1769 105.764 57.8051 105.579 58.347 105.21C58.9013 104.828 59.3263 104.292 59.6219 103.602C59.9299 102.913 60.0838 102.118 60.0838 101.219C60.0838 100.32 59.9299 99.5315 59.6219 98.854C59.3263 98.1642 58.9013 97.6345 58.347 97.265C57.8051 96.8832 57.1769 96.6922 56.4624 96.6922C55.748 96.6922 55.1136 96.8832 54.5593 97.265C54.0174 97.6345 53.5924 98.1642 53.2845 98.854C52.9888 99.5315 52.841 100.32 52.841 101.219ZM69.7878 94.4751C70.8594 94.4751 71.7955 94.6598 72.5962 95.0294C73.3968 95.3989 74.0127 95.9224 74.4438 96.5999C74.8873 97.265 75.109 98.0472 75.109 98.9464C75.109 99.8333 74.8873 100.615 74.4438 101.293C74.0127 101.958 73.3968 102.475 72.5962 102.845C71.7955 103.202 70.8594 103.381 69.7878 103.381H67.8108V108H65.1317V94.4751H69.7878ZM69.4921 101.108C70.3297 101.108 71.001 100.93 71.5061 100.572C72.0111 100.203 72.2636 99.6608 72.2636 98.9464C72.2636 98.232 72.0111 97.69 71.5061 97.3204C71.001 96.9386 70.3297 96.7477 69.4921 96.7477H67.8108V101.108H69.4921ZM81.9216 100.018L84.9887 94.4751H87.8895L83.178 102.679V108H80.4989V102.66L75.5842 94.4751H78.7437L81.9216 100.018Z" fill="#F1F1F1"/>
</svg>
