<svg width="113" height="113" fill="none" xmlns="http://www.w3.org/2000/svg"><circle cx="56.5" cy="56.5" r="56.5" fill="#0E3452"/><path opacity=".03" fill-rule="evenodd" clip-rule="evenodd" d="M56.5 106.543c27.638 0 50.043-22.405 50.043-50.043 0-27.638-22.405-50.043-50.043-50.043-27.638 0-50.043 22.405-50.043 50.043 0 27.638 22.405 50.043 50.043 50.043Zm0 6.457c31.204 0 56.5-25.296 56.5-56.5S87.704 0 56.5 0 0 25.296 0 56.5 25.296 113 56.5 113Z" fill="#03CA9B"/><path opacity=".3" fill-rule="evenodd" clip-rule="evenodd" d="M108.157 56.5c0 28.53-23.128 51.657-51.657 51.657-28.53 0-51.657-23.128-51.657-51.657C4.843 27.97 27.97 4.843 56.5 4.843c28.53 0 51.657 23.128 51.657 51.657ZM56.5 106.543c27.638 0 50.043-22.405 50.043-50.043 0-27.638-22.405-50.043-50.043-50.043-27.638 0-50.043 22.405-50.043 50.043 0 27.638 22.405 50.043 50.043 50.043Z" fill="#0B1923"/><g clip-path="url(#a)" fill="#03CA9B"><path d="M56.553 56.727c7.543 0 13.849-1.292 15.392-3.017-1.309-1.463-6.042-2.614-12.05-2.93v3.644a63.684 63.684 0 0 1-6.684 0v-3.645c-6.009.316-10.742 1.468-12.05 2.93 1.542 1.726 7.848 3.018 15.392 3.018Z"/><path fill-rule="evenodd" clip-rule="evenodd" d="M39.188 31.58h35.333c.843 0 1.622.45 2.043 1.18l10.294 17.894c.533.928.375 2.1-.387 2.852L58.137 81.507a2.356 2.356 0 0 1-3.312 0L26.529 53.544a2.357 2.357 0 0 1-.352-2.91l11.003-17.93a2.356 2.356 0 0 1 2.008-1.124Zm30.771 7.988v5.021H59.894v3.481c7.07.372 12.373 1.9 12.412 3.731v3.818c-.04 1.83-5.343 3.359-12.412 3.73v8.543h-6.683V59.35c-7.069-.372-12.372-1.9-12.412-3.731V51.8c.04-1.831 5.343-3.359 12.412-3.731v-3.481H43.146v-5.02h26.813Z"/></g><defs><clipPath id="a"><path fill="#fff" transform="translate(25.829 25.829)" d="M0 0h61.343v61.343H0z"/></clipPath></defs></svg>
