<svg width="20" height="16" viewBox="0 0 20 16" fill="none" xmlns="http://www.w3.org/2000/svg">
<path d="M15 6.33337H13.95C13.6382 5.12587 12.994 4.03003 12.0905 3.17037C11.1871 2.31071 10.0606 1.7217 8.8391 1.47027C7.61761 1.21884 6.35008 1.31507 5.18055 1.74803C4.01101 2.18099 2.98637 2.93332 2.22305 3.91953C1.45972 4.90573 0.988328 6.08627 0.862426 7.327C0.736523 8.56773 0.961162 9.8189 1.51082 10.9383C2.06047 12.0578 2.9131 13.0006 3.97182 13.6597C5.03054 14.3187 6.2529 14.6676 7.5 14.6667H15C16.1051 14.6667 17.1649 14.2277 17.9463 13.4463C18.7277 12.6649 19.1667 11.6051 19.1667 10.5C19.1667 9.39497 18.7277 8.33516 17.9463 7.55376C17.1649 6.77236 16.1051 6.33337 15 6.33337Z" stroke="#ffffff" stroke-width="2" stroke-linecap="round" stroke-linejoin="round"/>
</svg>
