<svg width="29" height="28" viewBox="0 0 29 28" fill="none" xmlns="http://www.w3.org/2000/svg">
<rect x="0.333344" width="28" height="28" rx="10.1818" fill="#ECF2FF"/>
<path fill-rule="evenodd" clip-rule="evenodd" d="M12.54 16.5609H15.6819C15.9187 16.5609 16.1151 16.3625 16.1151 16.1234C16.1151 15.8842 15.9187 15.6917 15.6819 15.6917H12.54C12.3032 15.6917 12.1068 15.8842 12.1068 16.1234C12.1068 16.3625 12.3032 16.5609 12.54 16.5609ZM14.4922 12.775H12.54C12.3032 12.775 12.1068 12.9734 12.1068 13.2125C12.1068 13.4517 12.3032 13.6442 12.54 13.6442H14.4922C14.729 13.6442 14.9253 13.4517 14.9253 13.2125C14.9253 12.9734 14.729 12.775 14.4922 12.775ZM18.6139 12.265C18.7496 12.2634 18.8975 12.2617 19.0318 12.2617C19.1762 12.2617 19.2917 12.3784 19.2917 12.5242V17.2142C19.2917 18.6609 18.1308 19.8334 16.6984 19.8334H12.1011C10.5994 19.8334 9.375 18.6025 9.375 17.0859V10.7975C9.375 9.35085 10.5417 8.16669 11.9798 8.16669H15.0639C15.2141 8.16669 15.3296 8.28919 15.3296 8.43502V10.3134C15.3296 11.3809 16.2017 12.2559 17.2587 12.2617C17.5055 12.2617 17.7232 12.2635 17.9137 12.2651C18.0618 12.2664 18.1936 12.2675 18.3098 12.2675C18.392 12.2675 18.4986 12.2663 18.6139 12.265ZM18.7731 11.4135C18.2984 11.4153 17.7387 11.4135 17.3362 11.4094C16.6974 11.4094 16.1712 10.878 16.1712 10.2329V8.69519C16.1712 8.44377 16.4733 8.31894 16.646 8.50035L18.9712 10.9428C19.1399 11.1195 19.0163 11.4129 18.7731 11.4135Z" fill="#0f171c"/>
</svg>
