<svg width="29" height="28" viewBox="0 0 29 28" fill="none" xmlns="http://www.w3.org/2000/svg">
<rect x="0.666748" width="28" height="28" rx="10.1818" fill="#ECF2FF"/>
<path fill-rule="evenodd" clip-rule="evenodd" d="M18.032 11.8894H20.5001C20.5001 9.90768 19.3127 8.75 17.3008 8.75H12.0327C10.0208 8.75 8.83344 9.90768 8.83344 11.8641V16.1359C8.83344 18.0923 10.0208 19.25 12.0327 19.25H17.3008C19.3127 19.25 20.5001 18.0923 20.5001 16.1359V15.9539H18.032C16.8865 15.9539 15.9579 15.0486 15.9579 13.9318C15.9579 12.815 16.8865 11.9096 18.032 11.9096V11.8894ZM18.032 12.7589H20.0645C20.3051 12.7589 20.5001 12.949 20.5001 13.1836V14.6597C20.4973 14.8931 20.3039 15.0816 20.0645 15.0844H18.0786C17.4987 15.092 16.9916 14.7049 16.8601 14.1542C16.7942 13.8123 16.8867 13.4596 17.1127 13.1905C17.3388 12.9213 17.6752 12.7634 18.032 12.7589ZM18.1201 14.3109H18.312C18.5582 14.3109 18.7579 14.1163 18.7579 13.8761C18.7579 13.636 18.5582 13.4414 18.312 13.4414H18.1201C18.0023 13.44 17.8889 13.4847 17.8051 13.5654C17.7213 13.6462 17.6742 13.7562 17.6742 13.8711C17.6742 14.112 17.873 14.3081 18.1201 14.3109ZM11.5971 11.8894H14.8897C15.136 11.8894 15.3357 11.6947 15.3357 11.4546C15.3357 11.2145 15.136 11.0199 14.8897 11.0199H11.5971C11.3529 11.0198 11.1541 11.2114 11.1512 11.4496C11.1512 11.6905 11.35 11.8866 11.5971 11.8894Z" fill="#0f171c"/>
</svg>
